<svg width="24" height="42" viewBox="0 0 24 42" fill="none" xmlns="http://www.w3.org/2000/svg">
<path d="M13.5 2C13.5 1.17157 12.8284 0.5 12 0.5C11.1716 0.5 10.5 1.17157 10.5 2L13.5 2ZM10.9393 41.0607C11.5251 41.6464 12.4749 41.6464 13.0607 41.0607L22.6066 31.5147C23.1924 30.9289 23.1924 29.9792 22.6066 29.3934C22.0208 28.8076 21.0711 28.8076 20.4853 29.3934L12 37.8787L3.51472 29.3934C2.92893 28.8076 1.97919 28.8076 1.3934 29.3934C0.807613 29.9792 0.807613 30.9289 1.3934 31.5147L10.9393 41.0607ZM10.5 2L10.5 40L13.5 40L13.5 2L10.5 2Z" fill="url(#paint0_linear_624_2630)"/>
<defs>
<linearGradient id="paint0_linear_624_2630" x1="12" y1="55" x2="12" y2="-4.5" gradientUnits="userSpaceOnUse">
<stop stop-color="white"/>
<stop offset="1" stop-color="white" stop-opacity="0"/>
</linearGradient>
</defs>
</svg>
