<svg width="199" height="161" viewBox="0 0 199 161" fill="none" xmlns="http://www.w3.org/2000/svg">
<path d="M93.3911 55.5242L96.9243 51.9863L93.3911 55.5242ZM124.509 86.6008L120.976 90.1387L124.509 86.6008ZM131.191 86.6008L134.724 90.1387L134.724 90.1387L131.191 86.6008ZM188.083 36.8504C190.037 34.899 190.039 31.7332 188.088 29.7793C186.137 27.8254 182.971 27.8233 181.017 29.7746L188.083 36.8504ZM39.2668 95.8371C37.3129 97.7885 37.3108 100.954 39.2621 102.908C41.2135 104.862 44.3793 104.864 46.3332 102.913L39.2668 95.8371ZM86.7089 55.5242L90.2421 59.062L86.7089 55.5242ZM146.75 18.875C143.989 18.875 141.75 21.1136 141.75 23.875C141.75 26.6364 143.989 28.875 146.75 28.875V18.875ZM189 71.0625C189 73.8239 191.239 76.0625 194 76.0625C196.761 76.0625 199 73.8239 199 71.0625H189ZM194 161C196.761 161 199 158.761 199 156C199 153.239 196.761 151 194 151V161ZM10 5C10 2.23858 7.76142 0 5 0C2.23858 0 0 2.23858 0 5H10ZM25.6392 151.885L27.9067 147.429L25.6392 151.885ZM9.11995 135.388L4.66614 137.66H4.66614L9.11995 135.388ZM89.8579 59.062L120.976 90.1387L128.042 83.063L96.9243 51.9863L89.8579 59.062ZM134.724 90.1387L188.083 36.8504L181.017 29.7746L127.658 83.063L134.724 90.1387ZM46.3332 102.913L90.2421 59.062L83.1757 51.9863L39.2668 95.8371L46.3332 102.913ZM120.976 90.1387C124.773 93.931 130.927 93.931 134.724 90.1387L127.658 83.063C127.765 82.9563 127.935 82.9562 128.042 83.063L120.976 90.1387ZM96.9243 51.9863C93.127 48.194 86.973 48.194 83.1757 51.9863L90.2421 59.062C90.1353 59.1688 89.9647 59.1687 89.8579 59.062L96.9243 51.9863ZM146.75 28.875H189.275V18.875H146.75V28.875ZM189 28.5938V71.0625H199V28.5938H189ZM189.275 28.875C189.129 28.875 189 28.7553 189 28.5938H199C199 23.22 194.64 18.875 189.275 18.875V28.875ZM194 151H65.48V161H194V151ZM10 95.6V5H0V95.6H10ZM65.48 151C54.8126 151 47.1124 150.996 41.0597 150.502C35.0651 150.013 31.1279 149.068 27.9067 147.429L23.3716 156.342C28.2363 158.817 33.6345 159.93 40.2464 160.469C46.8001 161.004 54.9774 161 65.48 161V151ZM0 95.6C0 106.088 -0.00389862 114.256 0.531643 120.802C1.07198 127.406 2.18631 132.8 4.66614 137.66L13.5738 133.116C11.9336 129.901 10.988 125.972 10.4983 119.986C10.0039 113.943 10 106.254 10 95.6H0ZM27.9067 147.429C21.7345 144.288 16.7175 139.278 13.5738 133.116L4.66614 137.66C8.77042 145.705 15.3188 152.244 23.3716 156.342L27.9067 147.429Z" fill="url(#paint0_linear_624_2740)"/>
<defs>
<linearGradient id="paint0_linear_624_2740" x1="152.332" y1="39.3186" x2="5.6386" y2="199.092" gradientUnits="userSpaceOnUse">
<stop stop-color="#61CBED"/>
<stop offset="1" stop-color="#85B959"/>
</linearGradient>
</defs>
</svg>
