<svg width="29" height="29" viewBox="0 0 29 29" fill="none" xmlns="http://www.w3.org/2000/svg">
<path fill-rule="evenodd" clip-rule="evenodd" d="M15.819 16.7566C16.029 17.0226 16.281 17.3236 16.281 17.3236C17.828 17.2746 18.423 16.2596 18.423 16.2596C18.423 14.0056 17.415 12.1786 17.415 12.1786C16.407 11.4226 15.448 11.4436 15.448 11.4436L15.35 11.5556C16.54 11.9196 17.093 12.4446 17.093 12.4446C16.365 12.0456 15.651 11.8496 14.986 11.7726C14.482 11.7166 13.999 11.7306 13.572 11.7866C13.5353 11.7866 13.504 11.792 13.4687 11.798L13.453 11.8006C13.208 11.8216 12.613 11.9126 11.864 12.2416C11.605 12.3606 11.451 12.4446 11.451 12.4446C11.451 12.4446 12.032 11.8916 13.292 11.5276L13.222 11.4436C13.222 11.4436 12.263 11.4226 11.255 12.1786C11.255 12.1786 10.247 14.0056 10.247 16.2596C10.247 16.2596 10.835 17.2746 12.382 17.3236C12.382 17.3236 12.641 17.0086 12.851 16.7426C11.962 16.4766 11.626 15.9166 11.626 15.9166C11.626 15.9166 11.696 15.9656 11.822 16.0356C11.829 16.0426 11.836 16.0496 11.85 16.0566C11.8605 16.0636 11.871 16.0689 11.8815 16.0741C11.892 16.0794 11.9025 16.0846 11.913 16.0916C12.088 16.1896 12.263 16.2666 12.424 16.3296C12.711 16.4416 13.054 16.5536 13.453 16.6306C13.978 16.7286 14.594 16.7636 15.266 16.6376C15.595 16.5816 15.931 16.4836 16.281 16.3366C16.526 16.2456 16.799 16.1126 17.086 15.9236C17.086 15.9236 16.736 16.4976 15.819 16.7566ZM12.312 14.8316C12.312 14.4046 12.627 14.0546 13.026 14.0546C13.425 14.0546 13.747 14.4046 13.74 14.8316C13.74 15.2586 13.425 15.6086 13.026 15.6086C12.634 15.6086 12.312 15.2586 12.312 14.8316ZM14.867 14.8316C14.867 14.4046 15.182 14.0546 15.581 14.0546C15.98 14.0546 16.295 14.4046 16.295 14.8316C16.295 15.2586 15.98 15.6086 15.581 15.6086C15.189 15.6086 14.867 15.2586 14.867 14.8316Z" fill="white"/>
<path fill-rule="evenodd" clip-rule="evenodd" d="M23.918 0.306641C26.3342 0.306641 28.293 2.26539 28.293 4.68164V23.9316C28.293 26.3479 26.3342 28.3066 23.918 28.3066H4.66797C2.25172 28.3066 0.292969 26.3479 0.292969 23.9316V4.68164C0.292969 2.26539 2.25172 0.306641 4.66797 0.306641H23.918ZM9.60297 8.18164H18.983C19.774 8.18164 20.418 8.82564 20.418 9.62364V22.1816L18.913 20.8516L18.066 20.0676L17.17 19.2346L17.541 20.5296H9.60297C8.81197 20.5296 8.16797 19.8856 8.16797 19.0876V9.62364C8.16797 8.82564 8.81197 8.18164 9.60297 8.18164Z" fill="white"/>
</svg>
