<svg width="28" height="29" viewBox="0 0 28 29" fill="none" xmlns="http://www.w3.org/2000/svg">
<path fill-rule="evenodd" clip-rule="evenodd" d="M4.51172 0.306641H23.0742C25.4042 0.306641 27.293 2.2654 27.293 4.68164V23.9316C27.293 26.3479 25.4042 28.3066 23.0742 28.3066H4.51172C2.18178 28.3066 0.292969 26.3479 0.292969 23.9316V4.68164C0.292969 2.2654 2.18178 0.306641 4.51172 0.306641ZM8.47735 10.5441C8.56171 10.6316 8.64609 10.8066 8.64609 10.9816V17.1066C8.73047 17.3691 8.64609 17.5441 8.47735 17.7191L7.04297 19.4691V19.7316H11.0086V19.4691L9.57422 17.7191C9.48984 17.5441 9.40546 17.3691 9.40546 17.1066V11.7691L12.9492 19.7316H13.2867L16.3242 11.7691V18.1566C16.3242 18.3316 16.3242 18.4191 16.2398 18.5066L15.143 19.6441V19.9066H20.4586V19.6441L19.4461 18.5941C19.3617 18.5066 19.3617 18.3316 19.3617 18.2441V10.3691C19.2773 10.1941 19.3617 10.1066 19.4461 10.0191L20.543 8.96914V8.70664H16.8305L14.1305 15.6191L11.093 8.70664H7.21173V8.96914L8.47735 10.5441Z" fill="white"/>
</svg>
