<svg width="29" height="29" viewBox="0 0 29 29" fill="none" xmlns="http://www.w3.org/2000/svg">
<path fill-rule="evenodd" clip-rule="evenodd" d="M4.66797 0.306641H23.918C26.3342 0.306641 28.293 2.26539 28.293 4.68164V23.9316C28.293 26.3479 26.3342 28.3066 23.918 28.3066H4.66797C2.25172 28.3066 0.292969 26.3479 0.292969 23.9316V4.68164C0.292969 2.26539 2.25172 0.306641 4.66797 0.306641ZM14.8983 10.8131C13.6445 11.3346 11.1385 12.4141 7.3804 14.0514C6.77014 14.2941 6.45046 14.5315 6.42136 14.7636C6.37218 15.1559 6.86347 15.3104 7.53249 15.5208C7.62349 15.5494 7.71778 15.5791 7.81445 15.6105C8.47266 15.8244 9.35807 16.0748 9.81836 16.0847C10.2359 16.0937 10.7019 15.9216 11.2164 15.5683C14.7277 13.1981 16.5402 12 16.654 11.9742C16.7343 11.956 16.8455 11.9331 16.9209 12.0001C16.9963 12.0671 16.9889 12.194 16.9809 12.228C16.9322 12.4355 15.0037 14.2284 14.0057 15.1562C13.6946 15.4455 13.4739 15.6507 13.4288 15.6975C13.3277 15.8025 13.2247 15.9018 13.1257 15.9972C12.5142 16.5867 12.0557 17.0288 13.1511 17.7506C13.6775 18.0976 14.0988 18.3844 14.519 18.6706C14.978 18.9832 15.4358 19.2949 16.028 19.6831C16.1789 19.7821 16.323 19.8848 16.4634 19.9849C16.9975 20.3656 17.4774 20.7077 18.0702 20.6532C18.4147 20.6215 18.7705 20.2976 18.9512 19.3315C19.3783 17.0484 20.2177 12.1017 20.4117 10.0633C20.4287 9.8847 20.4074 9.65614 20.3902 9.55581C20.373 9.45547 20.3371 9.31252 20.2067 9.20669C20.0523 9.08136 19.8138 9.05494 19.7072 9.05672C19.2223 9.06536 18.4784 9.32402 14.8983 10.8131Z" fill="white"/>
</svg>
