<svg width="29" height="29" viewBox="0 0 29 29" fill="none" xmlns="http://www.w3.org/2000/svg">
<path fill-rule="evenodd" clip-rule="evenodd" d="M0.292969 4.68164C0.292969 2.26539 2.25172 0.306641 4.66797 0.306641H23.918C26.3342 0.306641 28.293 2.26539 28.293 4.68164V23.9316C28.293 26.3479 26.3342 28.3066 23.918 28.3066H4.66797C2.25172 28.3066 0.292969 26.3479 0.292969 23.9316V4.68164ZM19.6305 10.3691C20.243 10.2816 20.768 10.1941 21.293 9.93164C20.943 10.5441 20.418 11.0691 19.8055 11.4191C19.9805 15.5316 17.0055 19.9941 11.668 19.9941C10.093 19.9941 8.60547 19.4691 7.29297 18.6816C8.78047 18.8566 10.3555 18.4191 11.4055 17.6316C10.093 17.6316 9.04297 16.7566 8.69297 15.6191C9.13047 15.7066 9.56797 15.6191 10.0055 15.5316C8.69297 15.1816 7.73047 13.9566 7.73047 12.6441C8.16797 12.8191 8.60547 12.9941 9.04297 12.9941C7.81797 12.1191 7.38047 10.4566 8.16797 9.14414C9.65547 10.8941 11.7555 12.0316 14.118 12.1191C13.6805 10.3691 15.0805 8.61914 16.918 8.61914C17.7055 8.61914 18.493 8.96914 19.018 9.49414C19.718 9.31914 20.3305 9.14414 20.8555 8.79414C20.6805 9.49414 20.243 10.0191 19.6305 10.3691Z" fill="white"/>
</svg>
