<svg width="271" height="38" viewBox="0 0 271 38" fill="none" xmlns="http://www.w3.org/2000/svg">
<path d="M44.133 34.0921C43.256 35.4387 40.7466 36.5086 33.7845 33.952C33.437 33.8246 33.084 33.6882 32.7237 33.548C32.3998 33.4188 32.0704 33.2842 31.7374 33.1441C31.4099 33.0076 31.0787 32.8639 30.7457 32.7146C28.0435 31.5246 25.1101 29.9961 22.1131 28.2183C20.8667 27.4813 19.6111 26.7007 18.3537 25.8819C17.0963 25.063 15.8753 24.2315 14.6961 23.389C11.8629 21.3673 9.28077 19.3039 7.09715 17.3132C6.8242 17.0675 6.56217 16.8219 6.30195 16.578C6.0381 16.3305 5.78517 16.0831 5.53405 15.8392C5.25746 15.5681 4.99179 15.297 4.73339 15.0313C2.97922 13.2153 1.69271 11.5649 0.91207 10.1237C-0.374442 7.75638 -0.0650969 6.36617 0.420757 5.62193C1.29784 4.27358 3.80718 3.20363 10.7693 5.76023L11.6864 6.09504C10.62 6.93208 9.64288 7.90741 8.78217 9.01375C6.4821 8.40599 5.68508 8.64982 5.62139 8.74991C5.55589 8.84999 5.65415 9.67974 7.139 11.534C7.32643 11.7669 7.53569 12.018 7.76679 12.2855C7.96878 12.5129 8.18532 12.7549 8.4237 13.0079C8.44371 13.0261 8.46009 13.0479 8.48011 13.0679C9.95768 14.6401 11.8411 16.3524 14.092 18.1338C15.9608 19.6096 18.0844 21.1381 20.4427 22.6738C22.801 24.2096 25.0555 25.5325 27.1609 26.6443C29.7012 27.9836 32.0267 29.0117 34.0629 29.7286C34.0921 29.7395 34.1175 29.7468 34.143 29.7559C34.4706 29.8705 34.7799 29.9743 35.0692 30.0634C35.4077 30.169 35.7189 30.2581 36.01 30.3345C38.3046 30.9423 39.1053 30.6967 39.169 30.5966C39.2363 30.4983 39.1344 29.6686 37.6532 27.8143C38.3137 26.5806 38.8087 25.2923 39.1453 23.9822L39.8222 24.6773C41.5782 26.4951 42.8647 28.1437 43.6436 29.5849C44.9301 31.954 44.6225 33.3406 44.1349 34.0885L44.133 34.0921Z" fill="white"/>
<path d="M38.0504 20.3797C38.0122 21.0347 37.9357 21.6862 37.812 22.334C37.57 23.6332 37.1569 24.916 36.5692 26.1425C36.3253 26.6502 36.0542 27.1488 35.7503 27.6346C35.6921 27.731 35.6338 27.8275 35.5683 27.9239C35.5647 27.9294 35.5611 27.9367 35.5556 27.9421C35.4974 28.0313 35.4373 28.1204 35.3773 28.206C35.1935 28.1477 35.0006 28.0804 34.7986 28.0113C32.9061 27.3453 30.8354 26.43 28.6481 25.3018C26.379 24.1318 23.9824 22.7288 21.5222 21.1257C19.0602 19.5208 16.8038 17.8959 14.8167 16.2964C12.9006 14.7497 11.2283 13.2266 9.85629 11.7655C9.7089 11.6108 9.5706 11.4616 9.44141 11.316C9.496 11.225 9.55241 11.1377 9.61064 11.0467C9.61428 11.0412 9.61791 11.0322 9.62337 11.0267C9.68706 10.9303 9.75075 10.8374 9.81444 10.7446C10.1365 10.2697 10.4823 9.81845 10.8498 9.39447C11.736 8.35727 12.7405 7.46383 13.8305 6.71595C14.3746 6.34111 14.9405 6.00447 15.5246 5.70969C20.3067 3.26408 26.2316 3.3678 31.0483 6.50305C35.8613 9.6383 38.3543 15.0172 38.0504 20.3797Z" fill="white"/>
<path d="M28.3648 33.8368C23.8429 35.6491 18.5331 35.307 14.1477 32.452C9.76224 29.5952 7.30386 24.8768 7.13281 20.0093C9.04529 21.6488 11.178 23.3101 13.498 24.966C14.7445 25.854 16.031 26.7292 17.3248 27.5735C18.6441 28.4306 19.9688 29.2531 21.2553 30.0155C23.7064 31.4694 26.0902 32.7504 28.3648 33.8368Z" fill="white"/>
<path d="M3.78947 33.9724C5.19845 33.9724 6.34066 32.8302 6.34066 31.4213C6.34066 30.0123 5.19845 28.8701 3.78947 28.8701C2.38049 28.8701 1.23828 30.0123 1.23828 31.4213C1.23828 32.8302 2.38049 33.9724 3.78947 33.9724Z" fill="white"/>
<path d="M40.6661 11.4249C41.8128 11.4249 42.7423 10.4953 42.7423 9.34868C42.7423 8.20202 41.8128 7.27246 40.6661 7.27246C39.5194 7.27246 38.5898 8.20202 38.5898 9.34868C38.5898 10.4953 39.5194 11.4249 40.6661 11.4249Z" fill="white"/>
<path d="M51.0391 24.4247C51.0391 24.0535 51.2392 23.8515 51.6123 23.8515H53.2736C53.6467 23.8515 53.8468 24.0517 53.8468 24.4247C53.9906 27.0869 54.9914 27.9476 57.8265 27.9476H63.2964C66.4172 27.9476 67.478 27.2325 67.478 24.9124C67.478 22.5924 66.419 22.2211 63.6986 22.021L57.428 21.506C53.0189 21.1621 51.1865 19.9302 51.1865 16.1799C51.1865 12.4296 52.9625 10.4535 58.1449 10.4535H63.1854C67.9675 10.4535 69.7999 12.4005 69.971 16.6949C69.971 17.0679 69.7708 17.2681 69.3978 17.2681H67.7364C67.3634 17.2681 67.1632 17.0679 67.1632 16.6949C67.0195 14.0327 66.0186 13.172 63.1836 13.172H58.1722C54.9932 13.172 53.9633 13.8599 53.9633 16.2072C53.9633 18.3835 54.995 18.8129 57.7155 19.0422L63.9861 19.5281C68.3679 19.872 70.2567 21.1894 70.2567 24.9106C70.2567 28.6318 68.4807 30.6661 63.2982 30.6661H57.8283C53.0462 30.6661 51.2138 28.7191 51.0427 24.4229L51.0391 24.4247Z" fill="white"/>
<path d="M99.7234 30.0939V13.1712H92.8232C92.4502 13.1712 92.25 12.971 92.25 12.598V11.024C92.25 10.651 92.4502 10.4508 92.8232 10.4508H109.461C109.834 10.4508 110.034 10.651 110.034 11.024V12.598C110.034 12.971 109.834 13.1712 109.461 13.1712H102.56V30.0939C102.56 30.4669 102.36 30.6671 101.987 30.6671H100.298C99.9254 30.6671 99.7252 30.4669 99.7252 30.0939H99.7234Z" fill="white"/>
<path d="M112.434 23.7087V11.024C112.434 10.651 112.634 10.4508 113.007 10.4508H114.668C115.041 10.4508 115.241 10.651 115.241 11.024V23.7943C115.241 27.0296 116.359 27.9467 119.221 27.9467H125.406C128.27 27.9467 129.358 27.0296 129.358 23.7943V11.024C129.358 10.651 129.559 10.4508 129.932 10.4508H131.622C131.993 10.4508 132.195 10.651 132.195 11.024V23.7087C132.195 28.1469 130.305 30.6671 125.41 30.6671H119.225C114.299 30.6671 112.437 28.1469 112.437 23.7087H112.434Z" fill="white"/>
<path d="M157.881 30.0939V11.024C157.881 10.651 158.081 10.4508 158.454 10.4508H160.257C160.543 10.4508 160.801 10.5654 160.972 10.7947L174.001 26.5729V11.024C174.001 10.651 174.201 10.4508 174.574 10.4508H176.236C176.609 10.4508 176.809 10.651 176.809 11.024V30.0939C176.809 30.4669 176.609 30.6671 176.236 30.6671H174.374C174.089 30.6671 173.83 30.5524 173.659 30.3232L160.687 14.6305V30.0939C160.687 30.4669 160.486 30.6671 160.113 30.6671H158.452C158.079 30.6671 157.879 30.4669 157.879 30.0939H157.881Z" fill="white"/>
<path d="M187.578 30.0939V11.024C187.578 10.651 187.778 10.4508 188.151 10.4508H189.813C190.186 10.4508 190.386 10.651 190.386 11.024V27.9467H203.415C203.786 27.9467 203.988 28.1469 203.988 28.5199V30.0957C203.988 30.4687 203.788 30.6689 203.415 30.6689H188.151C187.778 30.6689 187.578 30.4687 187.578 30.0957V30.0939Z" fill="white"/>
<path d="M251.781 24.4252C251.781 24.054 251.981 23.852 252.354 23.852H254.016C254.389 23.852 254.589 24.0522 254.589 24.4252C254.733 27.0874 255.734 27.9481 258.569 27.9481H264.039C267.159 27.9481 268.22 27.2329 268.22 24.9129C268.22 22.5928 267.161 22.2216 264.441 22.0215L258.17 21.5065C253.761 21.1626 251.929 19.9307 251.929 16.1804C251.929 12.4301 253.705 10.454 258.887 10.454H263.928C268.71 10.454 270.542 12.401 270.713 16.6954C270.713 17.0684 270.513 17.2686 270.14 17.2686H268.479C268.106 17.2686 267.905 17.0684 267.905 16.6954C267.762 14.0332 266.761 13.1725 263.926 13.1725H258.914C255.735 13.1725 254.705 13.8604 254.705 16.2077C254.705 18.384 255.737 18.8134 258.458 19.0427L264.728 19.5286C269.11 19.8725 270.999 21.1899 270.999 24.9111C270.999 28.6322 269.223 30.6666 264.04 30.6666H258.57C253.788 30.6666 251.956 28.7196 251.785 24.4234L251.781 24.4252Z" fill="white"/>
<path d="M94.3375 29.9807L84.5731 10.8526C84.4294 10.5669 84.2292 10.4523 83.9144 10.4523H81.9091C81.5943 10.4523 81.3941 10.5669 81.2504 10.8526L71.4569 29.9807C71.2567 30.381 71.4569 30.6685 71.8863 30.6685H73.8043C74.1191 30.6685 74.3192 30.5539 74.463 30.2682L76.2099 26.8327H88.1542L86.9351 24.4272H77.4127L82.939 13.4893L87.8067 23.2244L90.0394 27.6807L91.3296 30.2409C91.4733 30.5266 91.6735 30.6704 91.9883 30.6704H93.9062C94.3357 30.6704 94.5358 30.3847 94.3357 29.9825L94.3375 29.9807Z" fill="white"/>
<path d="M228.642 29.9806L218.878 10.8525C218.734 10.5668 218.534 10.4521 218.219 10.4521H216.214C215.899 10.4521 215.699 10.5668 215.555 10.8525L205.762 29.9806C205.561 30.3809 205.762 30.6684 206.191 30.6684H208.109C208.424 30.6684 208.624 30.5538 208.768 30.2681L210.515 26.8326H222.459L221.24 24.427H211.719L217.246 13.4891L222.261 23.5208L224.493 27.979L225.634 30.2408C225.778 30.5265 225.978 30.6702 226.293 30.6702H228.211C228.64 30.6702 228.841 30.3846 228.64 29.9824L228.642 29.9806Z" fill="white"/>
<path d="M246.653 20.4729C247.827 19.8997 249.145 18.9845 249.145 16.1786V15.8929C249.116 12.199 247.168 10.4521 242.33 10.4521H229.292C228.919 10.4521 228.719 10.6523 228.719 11.0253V13.1725H242.186C245.021 13.1725 246.253 13.9168 246.253 16.1222V16.5225C246.253 18.6133 245.079 19.2137 242.903 19.2137H233.597V14.5427H230.791V30.0952C230.791 30.4683 230.992 30.6684 231.365 30.6684H242.532C247.37 30.6684 249.29 29.0071 249.29 25.3423V25.0839C249.29 22.1634 247.858 21.0461 246.655 20.4729H246.653ZM246.424 25.0839C246.424 27.2893 245.192 27.9753 242.386 27.9753H233.595V21.7048H242.989C245.221 21.7048 246.424 22.5637 246.424 24.7109V25.0839Z" fill="white"/>
<path d="M154.871 17.782V17.4381C154.871 12.6561 152.866 10.4507 146.854 10.4507H136.487C136.114 10.4507 135.914 10.6508 135.914 11.0239V13.1711H146.681C150.719 13.1711 152.036 13.9444 152.036 17.4654V17.7511C152.036 21.2157 150.69 21.9599 146.681 21.9599H138.72V14.5394H135.914V30.0919C135.914 30.465 136.114 30.6651 136.487 30.6651H138.149C138.522 30.6651 138.722 30.465 138.722 30.0919V24.6512H147.342L151.179 30.2921C151.35 30.5505 151.58 30.6651 151.867 30.6651H153.843C154.302 30.6651 154.473 30.3503 154.216 29.9773L150.293 24.3655C153.729 23.6504 154.875 21.445 154.875 17.7802L154.871 17.782Z" fill="white"/>
</svg>
