<svg width="350" height="150" viewBox="0 0 350 150" fill="none" xmlns="http://www.w3.org/2000/svg">
<g clip-path="url(#clip0_644_394)">
<g opacity="0.1">
<path d="M83.5941 41.7879L83.4023 41.4683L96.9765 33.1362L97.1683 33.4346L83.5941 41.7879Z" fill="white"/>
<path d="M68.9102 34.2869L69.0806 33.9673L83.1875 41.3404L83.0171 41.66L68.9102 34.2869Z" fill="white"/>
<path d="M110.891 56.7471L111.061 56.4275L125.147 63.8219L124.976 64.1415L110.891 56.7471Z" fill="white"/>
<path d="M109.848 40.2962L110.21 40.2749L111.062 56.1718L110.7 56.1931L109.848 40.2962Z" fill="white"/>
<path d="M56.5089 91.2899L56.3384 91.6096L42.3594 83.9595L42.5299 83.6611L56.5089 91.2899Z" fill="white"/>
<path d="M57.2753 107.762L56.9131 107.784L56.3164 91.8653L56.6787 91.844L57.2753 107.762Z" fill="white"/>
<path d="M54.7796 58.3453H54.4173L53.8633 42.4271H54.2255L54.7796 58.3453Z" fill="white"/>
<path d="M41.016 67.402L40.8242 67.1036L54.2066 58.4733L54.3984 58.7716L41.016 67.402Z" fill="white"/>
<path d="M113.34 89.2869L113.702 89.2656L114.043 105.184L113.702 105.205L113.34 89.2869Z" fill="white"/>
<path d="M127.237 80.4008L127.407 80.6991L113.918 89.159L113.727 88.8393L127.237 80.4008Z" fill="white"/>
<path d="M86.6391 105.29L86.8309 105.589L73.3207 114.027L73.1289 113.729L86.6391 105.29Z" fill="white"/>
<path d="M101.363 112.706L101.214 113.026L87.043 105.716L87.2134 105.397L101.363 112.706Z" fill="white"/>
<path d="M67.4389 34.6706L67.375 33.0724L68.7175 32.22L70.1452 32.9658L70.2092 34.564L68.8454 35.4164L67.4389 34.6706Z" fill="white"/>
<path d="M95.6967 34.3297L95.6328 32.7102L96.9966 31.8578L98.4031 32.6036L98.467 34.2231L97.1032 35.0755L95.6967 34.3297Z" fill="white"/>
<path d="M82.0561 41.9159L81.9922 40.3177L83.356 39.4653L84.7624 40.2112L84.8264 41.8094L83.4626 42.6618L82.0561 41.9159Z" fill="white"/>
<path d="M108.758 39.2095L110.1 38.3358L111.528 39.0816L111.613 40.6799L110.249 41.5536L108.822 40.8077L108.758 39.2095Z" fill="white"/>
<path d="M123.484 63.3319L124.827 62.4583L126.255 63.2041L126.34 64.8023L124.997 65.676L123.57 64.9302L123.484 63.3319Z" fill="white"/>
<path d="M109.996 55.49L111.339 54.6163L112.766 55.3409L112.852 56.9391L111.488 57.8128L110.06 57.0882L109.996 55.49Z" fill="white"/>
<path d="M58.3381 108.849L56.9743 109.702L55.5678 108.956L55.5039 107.336L56.8677 106.505L58.2955 107.251L58.3381 108.849Z" fill="white"/>
<path d="M44.0217 84.4923L42.6579 85.3447L41.2514 84.5775L41.1875 82.9793L42.5513 82.127L43.979 82.8941L44.0217 84.4923Z" fill="white"/>
<path d="M57.381 92.5686L56.0172 93.421L54.6108 92.6538L54.5469 91.0556L55.9107 90.2032L57.3171 90.9704L57.381 92.5686Z" fill="white"/>
<path d="M40.6323 68.8725L39.2046 68.1479L39.1406 66.5497L40.4831 65.676L41.9109 66.4219L41.9748 68.0201L40.6323 68.8725Z" fill="white"/>
<path d="M54.2729 44.132L52.8452 43.3862L52.7812 41.788L54.1238 40.9143L55.5515 41.6601L55.6154 43.2584L54.2729 44.132Z" fill="white"/>
<path d="M54.144 59.7307L52.7163 59.0062L52.6523 57.408L53.9948 56.5343L55.4226 57.2801L55.5078 58.8783L54.144 59.7307Z" fill="white"/>
<path d="M127.641 78.9093L129.048 79.6764L129.112 81.2747L127.748 82.127L126.32 81.3599L126.277 79.7617L127.641 78.9093Z" fill="white"/>
<path d="M113.68 103.479L115.087 104.246L115.129 105.844L113.765 106.697L112.359 105.93L112.316 104.331L113.68 103.479Z" fill="white"/>
<path d="M114.001 87.8805L115.407 88.6476L115.471 90.2459L114.107 91.0982L112.679 90.3311L112.637 88.7329L114.001 87.8805Z" fill="white"/>
<path d="M102.856 112.301L102.92 113.899L101.578 114.752L100.15 114.027L100.086 112.429L101.428 111.555L102.856 112.301Z" fill="white"/>
<path d="M74.6001 112.834L74.6641 114.432L73.3216 115.306L71.8938 114.56L71.8086 112.962L73.1724 112.088L74.6001 112.834Z" fill="white"/>
<path d="M88.1765 105.141L88.2617 106.761L86.8979 107.613L85.4915 106.867L85.4062 105.269L86.7701 104.417L88.1765 105.141Z" fill="white"/>
<path d="M83.8654 35.6934L83.6523 35.3312L99.8476 25.3796L100.061 25.7419L83.8654 35.6934Z" fill="white"/>
<path d="M66.3477 26.7434L66.5394 26.3599L83.3953 35.182L83.1822 35.5656L66.3477 26.7434Z" fill="white"/>
<path d="M116.445 53.5508L116.658 53.1672L133.472 62.0107L133.28 62.3943L116.445 53.5508Z" fill="white"/>
<path d="M115.211 33.9247L115.637 33.8821L116.66 52.8689L116.234 52.8902L115.211 33.9247Z" fill="white"/>
<path d="M51.5373 94.806L51.3242 95.1683L34.6602 86.0478L34.8519 85.6855L51.5373 94.806Z" fill="white"/>
<path d="M52.4536 114.453L52.0274 114.475L51.3242 95.4667H51.7504L52.4536 114.453Z" fill="white"/>
<path d="M49.4948 55.4474L49.0686 55.4687L48.3867 36.4819L48.8342 36.4606L49.4948 55.4474Z" fill="white"/>
<path d="M33.0625 66.2726L32.8281 65.9103L48.8103 55.6178L49.0447 55.9801L33.0625 66.2726Z" fill="white"/>
<path d="M119.387 92.3981L119.813 92.3768L120.239 111.385L119.792 111.406L119.387 92.3981Z" fill="white"/>
<path d="M135.946 81.7859L136.18 82.1482L120.07 92.2489L119.836 91.8653L135.946 81.7859Z" fill="white"/>
<path d="M87.5084 111.513L87.7428 111.875L71.6115 121.933L71.3984 121.571L87.5084 111.513Z" fill="white"/>
<path d="M105.09 120.356L104.898 120.718L88 112.024L88.1918 111.641L105.09 120.356Z" fill="white"/>
<path d="M64.5796 27.2123L64.5156 25.2945L66.1352 24.2716L67.8186 25.1666L67.9038 27.0845L66.2843 28.1073L64.5796 27.2123Z" fill="white"/>
<path d="M98.3139 26.7861L98.25 24.8682L99.8695 23.8667L101.553 24.7404L101.638 26.6582L100.019 27.6811L98.3139 26.7861Z" fill="white"/>
<path d="M82.0327 35.8639L81.9688 33.9461L83.5883 32.9232L85.2717 33.8182L85.357 35.7361L83.7374 36.7376L82.0327 35.8639Z" fill="white"/>
<path d="M113.91 32.6249L115.508 31.6021L117.213 32.4757L117.32 34.3723L115.7 35.4165L113.995 34.5428L113.91 32.6249Z" fill="white"/>
<path d="M131.492 61.4354L133.09 60.3912L134.795 61.2649L134.902 63.1828L133.282 64.2056L131.577 63.332L131.492 61.4354Z" fill="white"/>
<path d="M115.383 52.0592L116.981 51.015L118.686 51.8887L118.792 53.8066L117.173 54.8507L115.468 53.977L115.383 52.0592Z" fill="white"/>
<path d="M53.7341 115.753L52.1146 116.776L50.4311 115.86L50.3672 113.963L51.9867 112.94L53.6702 113.835L53.7341 115.753Z" fill="white"/>
<path d="M36.646 86.6659L35.0265 87.6887L33.3217 86.7937L33.2578 84.8759L34.8986 83.853L36.5821 84.7693L36.646 86.6659Z" fill="white"/>
<path d="M52.5857 96.3191L50.9661 97.3206L49.2827 96.4256L49.2188 94.5078L50.8383 93.5062L52.5217 94.4012L52.5857 96.3191Z" fill="white"/>
<path d="M32.5947 68.0413L30.8899 67.1676L30.8047 65.2498L32.4242 64.2269L34.1077 65.1006L34.2142 67.0185L32.5947 68.0413Z" fill="white"/>
<path d="M48.8759 38.5064L47.1712 37.6114L47.0859 35.7148L48.7055 34.6707L50.4102 35.5443L50.4955 37.4622L48.8759 38.5064Z" fill="white"/>
<path d="M48.7275 57.1309L47.0227 56.2572L46.9375 54.3393L48.557 53.2952L50.2405 54.1902L50.347 56.108L48.7275 57.1309Z" fill="white"/>
<path d="M136.436 80.0172L138.119 80.9335L138.183 82.8301L136.564 83.8529L134.88 82.9366L134.816 81.0401L136.436 80.0172Z" fill="white"/>
<path d="M119.772 109.36L121.455 110.255L121.519 112.173L119.9 113.175L118.216 112.28L118.152 110.362L119.772 109.36Z" fill="white"/>
<path d="M120.176 90.736L121.859 91.631L121.923 93.5488L120.304 94.5504L118.599 93.6554L118.535 91.7375L120.176 90.736Z" fill="white"/>
<path d="M106.862 119.866L106.947 121.784L105.327 122.807L103.644 121.933L103.559 120.015L105.157 118.971L106.862 119.866Z" fill="white"/>
<path d="M73.1272 120.505L73.2124 122.423L71.6142 123.446L69.9095 122.572L69.8242 120.655L71.4437 119.632L73.1272 120.505Z" fill="white"/>
<path d="M89.3633 111.342L89.4486 113.239L87.8291 114.283L86.1243 113.388L86.0391 111.491L87.6586 110.447L89.3633 111.342Z" fill="white"/>
<path d="M83.0604 28.3418L82.8047 27.9156L101.578 16.3658L101.834 16.792L83.0604 28.3418Z" fill="white"/>
<path d="M62.7539 17.9427L62.967 17.5165L82.5078 27.7237L82.2734 28.1712L62.7539 17.9427Z" fill="white"/>
<path d="M120.844 49.0334L121.078 48.6072L140.576 58.8571L140.363 59.2833L120.844 49.0334Z" fill="white"/>
<path d="M119.395 26.2748L119.906 26.2322L121.078 48.2449L120.588 48.2875L119.395 26.2748Z" fill="white"/>
<path d="M45.5795 96.8732L45.3451 97.2994L25.9961 86.7298L26.2305 86.2823L45.5795 96.8732Z" fill="white"/>
<path d="M46.6241 119.653L46.134 119.674L45.3242 97.6403L45.8143 97.619L46.6241 119.653Z" fill="white"/>
<path d="M43.1909 51.2496L42.7007 51.2709L41.9336 29.2369L42.4237 29.2156L43.1909 51.2496Z" fill="white"/>
<path d="M24.1403 63.7796L23.8633 63.3747L42.4026 51.42L42.6583 51.8462L24.1403 63.7796Z" fill="white"/>
<path d="M124.23 94.0604H124.721L125.211 116.094L124.721 116.116L124.23 94.0604Z" fill="white"/>
<path d="M143.45 81.7648L143.706 82.191L125.039 93.8899L124.762 93.4637L143.45 81.7648Z" fill="white"/>
<path d="M87.2822 116.244L87.5592 116.648L68.8495 128.326L68.5938 127.9L87.2822 116.244Z" fill="white"/>
<path d="M107.673 126.493L107.439 126.92L87.8555 116.84L88.0686 116.393L107.673 126.493Z" fill="white"/>
<path d="M60.6829 18.4967L60.5977 16.2805L62.4942 15.0872L64.4547 16.1313L64.5399 18.3475L62.6647 19.5195L60.6829 18.4967Z" fill="white"/>
<path d="M99.804 18.0066L99.7188 15.7904L101.594 14.597L103.554 15.6412L103.64 17.8574L101.764 19.0507L99.804 18.0066Z" fill="white"/>
<path d="M80.9251 28.5121L80.8398 26.2959L82.7151 25.1239L84.6756 26.1468L84.7608 28.3629L82.8856 29.5563L80.9251 28.5121Z" fill="white"/>
<path d="M117.879 24.783L119.754 23.5684L121.715 24.5912L121.842 26.8074L119.967 28.0221L117.985 26.9992L117.879 24.783Z" fill="white"/>
<path d="M138.27 58.1751L140.123 56.9604L142.105 57.9833L142.212 60.1995L140.358 61.3928L138.376 60.3913L138.27 58.1751Z" fill="white"/>
<path d="M119.582 47.3072L121.457 46.0925L123.439 47.1154L123.546 49.3316L121.67 50.5249L119.71 49.5234L119.582 47.3072Z" fill="white"/>
<path d="M48.1124 121.166L46.2371 122.338L44.2766 121.294L44.1914 119.078L46.088 117.906L48.0484 118.95L48.1124 121.166Z" fill="white"/>
<path d="M28.292 87.4331L26.4168 88.6264L24.4563 87.5609L24.3711 85.3448L26.2676 84.1727L28.2281 85.2169L28.292 87.4331Z" fill="white"/>
<path d="M46.7881 98.6206L44.8916 99.7926L42.9311 98.7484L42.8672 96.5323L44.7424 95.3602L46.7029 96.4044L46.7881 98.6206Z" fill="white"/>
<path d="M23.604 65.8464L21.6222 64.8236L21.5156 62.6074L23.3909 61.4141L25.3726 62.4156L25.4579 64.6531L23.604 65.8464Z" fill="white"/>
<path d="M42.4811 31.5808L40.4993 30.558L40.4141 28.3418L42.268 27.1484L44.2498 28.1713L44.3563 30.3875L42.4811 31.5808Z" fill="white"/>
<path d="M42.2897 53.1886L40.3292 52.1657L40.2227 49.9496L42.0979 48.7562L44.0797 49.7791L44.1649 51.9953L42.2897 53.1886Z" fill="white"/>
<path d="M144 79.719L145.961 80.7845L146.046 83.0007L144.149 84.1727L142.189 83.1285L142.125 80.891L144 79.719Z" fill="white"/>
<path d="M124.693 113.75L126.654 114.795L126.718 117.011L124.843 118.183L122.882 117.139L122.797 114.922L124.693 113.75Z" fill="white"/>
<path d="M125.145 92.1425L127.105 93.1866L127.169 95.4028L125.294 96.5748L123.333 95.5307L123.27 93.3145L125.145 92.1425Z" fill="white"/>
<path d="M109.715 125.918L109.821 128.156L107.946 129.349L105.964 128.326L105.879 126.088L107.754 124.895L109.715 125.918Z" fill="white"/>
<path d="M70.6148 126.664L70.7001 128.88L68.8461 130.073L66.8644 129.051L66.7578 126.834L68.6331 125.641L70.6148 126.664Z" fill="white"/>
<path d="M89.4099 116.03L89.5165 118.247L87.6412 119.44L85.6808 118.417L85.5742 116.201L87.4495 115.008L89.4099 116.03Z" fill="white"/>
</g>
<path d="M72.0877 51.8461L71.832 51.6969L78.2249 40.8717L78.4806 41.0209L72.0877 51.8461Z" fill="white"/>
<path d="M59.0664 52.0167V51.7183L71.639 51.697V51.974L59.0664 52.0167Z" fill="white"/>
<path d="M96.6367 52.2297V51.9527L109.209 51.9314V52.2084L96.6367 52.2297Z" fill="white"/>
<path d="M89.8633 41.1274L90.119 40.9995L96.5545 51.7821L96.3201 51.9313L89.8633 41.1274Z" fill="white"/>
<path d="M71.4086 96.3831V96.6601L58.8359 96.4683V96.1913L71.4086 96.3831Z" fill="white"/>
<path d="M78.0129 107.592L77.7572 107.741L71.4922 96.8518L71.7266 96.7026L78.0129 107.592Z" fill="white"/>
<path d="M58.0658 74.008L57.8314 74.1572L51.5664 63.2467L51.8221 63.0975L58.0658 74.008Z" fill="white"/>
<path d="M51.8026 85.4087L51.5469 85.2595L57.7266 74.3064L57.961 74.4556L51.8026 85.4087Z" fill="white"/>
<path d="M110.34 74.0507L110.596 73.9015L116.69 84.8972L116.456 85.0251L110.34 74.0507Z" fill="white"/>
<path d="M116.757 62.7354L117.013 62.8845L110.705 73.7524L110.449 73.6032L116.757 62.7354Z" fill="white"/>
<path d="M97.5985 95.0618L97.8542 95.1896L91.5252 106.057L91.2695 105.908L97.5985 95.0618Z" fill="white"/>
<path d="M110.619 94.8062V95.0832L98.0469 95.211V94.934L110.619 94.8062Z" fill="white"/>
<path d="M58.1727 52.8265L57.5547 51.7397L58.1727 50.6316H59.4512L60.0905 51.7397L59.4512 52.8265H58.1727Z" fill="white"/>
<path d="M77.776 42.1717L77.1367 41.085L77.776 39.9982H79.0546L79.6726 41.085L79.0546 42.1717H77.776Z" fill="white"/>
<path d="M71.0651 52.5068L70.4258 51.3987L71.0651 50.3119H72.3223L72.9616 51.3987L72.3223 52.5068H71.0651Z" fill="white"/>
<path d="M88.707 40.7866L89.325 39.6785H90.5823L91.2216 40.7653L90.6036 41.8733H89.3463L88.707 40.7866Z" fill="white"/>
<path d="M107.867 52.2084L108.485 51.1003L109.742 51.079L110.403 52.1658L109.785 53.2739L108.506 53.2952L107.867 52.2084Z" fill="white"/>
<path d="M95.5508 51.697L96.1688 50.5889L97.4473 50.5676L98.0866 51.6544L97.4686 52.7625L96.2114 52.7838L95.5508 51.697Z" fill="white"/>
<path d="M79.1608 107.954L78.5215 109.062L77.243 109.041L76.625 107.954L77.2643 106.867H78.5215L79.1608 107.954Z" fill="white"/>
<path d="M60.196 96.234L59.5567 97.3207H58.2781L57.6602 96.2126L58.2994 95.1259H59.5567L60.196 96.234Z" fill="white"/>
<path d="M72.489 96.9371L71.8497 98.0452H70.5711L69.9531 96.9371L70.5924 95.8503H71.8497L72.489 96.9371Z" fill="white"/>
<path d="M52.078 86.5807L50.7994 86.6021L50.1602 85.494L50.7781 84.4072L52.0567 84.3859L52.696 85.4727L52.078 86.5807Z" fill="white"/>
<path d="M52.4804 64.291H51.2018L50.5625 63.2042L51.2018 62.0961H52.459L53.0983 63.1829L52.4804 64.291Z" fill="white"/>
<path d="M58.1309 75.2228L56.8737 75.2441L56.2344 74.136L56.8523 73.0493L58.1309 73.028L58.7702 74.1147L58.1309 75.2228Z" fill="white"/>
<path d="M116.499 61.5421L117.777 61.5634L118.395 62.6502L117.756 63.7583L116.499 63.737L115.859 62.6502L116.499 61.5421Z" fill="white"/>
<path d="M115.792 83.853H117.07L117.688 84.9611L117.049 86.0479H115.792L115.152 84.9398L115.792 83.853Z" fill="white"/>
<path d="M110.296 72.8361H111.553L112.171 73.9442L111.531 75.0309H110.274L109.656 73.9228L110.296 72.8361Z" fill="white"/>
<path d="M111.49 93.9751L112.13 95.0619L111.512 96.17H110.233L109.594 95.0832L110.233 93.9751H111.49Z" fill="white"/>
<path d="M91.9708 104.758L92.6101 105.844L91.9708 106.953H90.7135L90.0742 105.866L90.6922 104.758H91.9708Z" fill="white"/>
<path d="M98.6153 94.38L99.2546 95.4881L98.6366 96.5749L97.358 96.5962L96.7188 95.5094L97.358 94.4013L98.6153 94.38Z" fill="white"/>
<path d="M70.0444 47.4991L69.7461 47.3286L77.3962 34.415L77.6732 34.5855L70.0444 47.4991Z" fill="white"/>
<path d="M54.5117 47.6908V47.3499L69.5136 47.3073V47.6482L54.5117 47.6908Z" fill="white"/>
<path d="M99.3672 47.9679V47.6269L114.369 47.6056V47.9465L99.3672 47.9679Z" fill="white"/>
<path d="M91.2695 34.7133L91.5466 34.5428L99.2606 47.4138L98.9623 47.5843L91.2695 34.7133Z" fill="white"/>
<path d="M69.2363 100.666V100.986L54.2344 100.773V100.432L69.2363 100.666Z" fill="white"/>
<path d="M77.1178 114.049L76.8195 114.219L69.3398 101.199L69.6169 101.029L77.1178 114.049Z" fill="white"/>
<path d="M53.3153 73.9442L53.0169 74.1147L45.5586 61.0946L45.8569 60.9241L53.3153 73.9442Z" fill="white"/>
<path d="M45.8374 87.561L45.5391 87.3906L52.8908 74.3065L53.1892 74.477L45.8374 87.561Z" fill="white"/>
<path d="M115.711 73.9868L116.009 73.8376L123.297 86.943L122.999 87.1135L115.711 73.9868Z" fill="white"/>
<path d="M123.383 60.4979L123.66 60.6684L116.138 73.6459L115.84 73.4754L123.383 60.4979Z" fill="white"/>
<path d="M100.497 99.0682L100.795 99.2387L93.2515 112.216L92.9531 112.024L100.497 99.0682Z" fill="white"/>
<path d="M116.029 98.7698V99.1107L101.027 99.2599V98.9189L116.029 98.7698Z" fill="white"/>
<path d="M53.449 48.6711L52.7031 47.3712L53.449 46.05H54.9619L55.7291 47.3712L54.9619 48.6711H53.449Z" fill="white"/>
<path d="M76.8435 35.9492L76.0977 34.6494L76.8435 33.3495H78.3565L79.1236 34.6494L78.3565 35.9492H76.8435Z" fill="white"/>
<path d="M68.8083 48.2876L68.0625 46.9664L68.8083 45.6665H70.3213L71.0885 46.9664L70.3213 48.2876H68.8083Z" fill="white"/>
<path d="M89.8867 34.2871L90.6326 32.9873L92.1455 32.9659L92.9127 34.2658L92.1668 35.587H90.6539L89.8867 34.2871Z" fill="white"/>
<path d="M112.75 47.9253L113.496 46.6041L115.009 46.5828L115.776 47.8826L115.03 49.2038L113.517 49.2251L112.75 47.9253Z" fill="white"/>
<path d="M98.0703 47.3072L98.8161 45.986L100.308 45.9647L101.096 47.2646L100.35 48.5858L98.8375 48.6071L98.0703 47.3072Z" fill="white"/>
<path d="M78.4869 114.475L77.7197 115.775H76.2281L75.4609 114.454L76.2281 113.154L77.7411 113.175L78.4869 114.475Z" fill="white"/>
<path d="M55.8541 100.475L55.0869 101.774H53.574L52.8281 100.453L53.5953 99.1533H55.0869L55.8541 100.475Z" fill="white"/>
<path d="M70.5377 101.327L69.7705 102.627H68.2576L67.5117 101.306L68.2576 100.006H69.7705L70.5377 101.327Z" fill="white"/>
<path d="M46.159 88.9674H44.6461L43.8789 87.6675L44.6247 86.3463H46.1377L46.9049 87.6462L46.159 88.9674Z" fill="white"/>
<path d="M46.6512 62.3304L45.1382 62.3517L44.3711 61.0518L45.1169 59.7307L46.6299 59.7094L47.397 61.0305L46.6512 62.3304Z" fill="white"/>
<path d="M53.4051 75.3932L51.8921 75.4145L51.125 74.1146L51.8708 72.7934L53.3838 72.7721L54.151 74.0933L53.4051 75.3932Z" fill="white"/>
<path d="M123.068 59.0701L124.581 59.0914L125.327 60.3913L124.56 61.7124L123.047 61.6911L122.301 60.3913L123.068 59.0701Z" fill="white"/>
<path d="M122.236 85.6857L123.749 85.707L124.495 87.0069L123.728 88.3067H122.215L121.469 86.9856L122.236 85.6857Z" fill="white"/>
<path d="M115.65 72.5377L117.163 72.559L117.909 73.8589L117.142 75.1588H115.629L114.883 73.8376L115.65 72.5377Z" fill="white"/>
<path d="M117.099 97.7894L117.844 99.0893L117.099 100.411H115.586L114.84 99.1106L115.586 97.7894H117.099Z" fill="white"/>
<path d="M93.7862 110.661L94.532 111.96L93.7862 113.26L92.2945 113.282L91.5273 111.982L92.2732 110.661H93.7862Z" fill="white"/>
<path d="M101.735 98.2797L102.481 99.5795L101.735 100.901H100.222L99.4766 99.6008L100.222 98.2797H101.735Z" fill="white"/>
<path d="M66.7628 42.6618L66.4219 42.4487L75.2866 27.4894L75.6276 27.6812L66.7628 42.6618Z" fill="white"/>
<path d="M48.7578 42.8749V42.4913L66.1464 42.4274V42.8322L48.7578 42.8749Z" fill="white"/>
<path d="M100.75 43.1945V42.8109L118.16 42.7683V43.1732L100.75 43.1945Z" fill="white"/>
<path d="M91.375 27.8303L91.716 27.6385L100.623 42.5552L100.304 42.7683L91.375 27.8303Z" fill="white"/>
<path d="M65.8278 104.289V104.694L48.418 104.417L48.4393 104.033L65.8278 104.289Z" fill="white"/>
<path d="M74.9649 119.824L74.624 120.015L65.9297 104.928L66.2706 104.736L74.9649 119.824Z" fill="white"/>
<path d="M47.3715 73.3262L47.0306 73.5179L38.3789 58.4308L38.7199 58.239L47.3715 73.3262Z" fill="white"/>
<path d="M38.6769 89.0953L38.3359 88.9035L46.8811 73.7524L47.222 73.9442L38.6769 89.0953Z" fill="white"/>
<path d="M119.715 73.3901L120.056 73.1984L128.516 88.3921L128.175 88.5838L119.715 73.3901Z" fill="white"/>
<path d="M128.604 57.7275L128.945 57.9193L120.208 72.9638L119.867 72.7721L128.604 57.7275Z" fill="white"/>
<path d="M102.075 102.456L102.416 102.648L93.6574 117.693L93.3164 117.501L102.075 102.456Z" fill="white"/>
<path d="M120.076 102.115V102.499L102.688 102.669V102.286L120.076 102.115Z" fill="white"/>
<path d="M47.5221 44.0257L46.6484 42.5127L47.5221 40.9784H49.2695L50.1645 42.5127L49.2695 44.0257H47.5221Z" fill="white"/>
<path d="M74.6471 29.2795L73.7734 27.7665L74.6471 26.2535H76.3945L77.2682 27.7665L76.3945 29.2795H74.6471Z" fill="white"/>
<path d="M65.3346 43.5568L64.4609 42.0439L65.3346 40.5309H67.1033L67.977 42.0439L67.1033 43.5568H65.3346Z" fill="white"/>
<path d="M89.7539 27.3616L90.6276 25.8273L92.375 25.806L93.27 27.319L92.4176 28.832L90.6489 28.8533L89.7539 27.3616Z" fill="white"/>
<path d="M116.285 43.1519L117.138 41.6176L118.906 41.5963L119.78 43.1093L118.928 44.6436L117.18 44.6649L116.285 43.1519Z" fill="white"/>
<path d="M99.2617 42.4488L100.114 40.9145L101.861 40.8932L102.756 42.4062L101.904 43.9191L100.157 43.9405L99.2617 42.4488Z" fill="white"/>
<path d="M76.5416 120.314L75.668 121.827H73.9206L73.0469 120.314L73.9206 118.801H75.6893L76.5416 120.314Z" fill="white"/>
<path d="M50.2877 104.076L49.414 105.589H47.6667L46.793 104.055L47.6667 102.542L49.4353 102.563L50.2877 104.076Z" fill="white"/>
<path d="M67.3151 105.077L66.4414 106.59H64.694L63.8203 105.056L64.694 103.543L66.4414 103.564L67.3151 105.077Z" fill="white"/>
<path d="M39.0604 90.7361H37.313L36.418 89.2231L37.2917 87.7102L39.039 87.6888L39.934 89.2018L39.0604 90.7361Z" fill="white"/>
<path d="M39.6346 59.8586L37.8872 59.8799L36.9922 58.3669L37.8659 56.8326H39.6133L40.4869 58.3456L39.6346 59.8586Z" fill="white"/>
<path d="M47.4549 75.0097L45.7075 75.031L44.8125 73.5181L45.6862 71.9838H47.4336L48.3286 73.4967L47.4549 75.0097Z" fill="white"/>
<path d="M128.239 56.0869H129.986L130.86 57.6212L129.965 59.1342L128.217 59.1129L127.344 57.5999L128.239 56.0869Z" fill="white"/>
<path d="M127.282 86.9431H129.029L129.903 88.4774L129.008 89.9904L127.26 89.9691L126.387 88.4561L127.282 86.9431Z" fill="white"/>
<path d="M119.632 71.7067H121.4L122.253 73.2196L121.379 74.7326H119.632L118.758 73.2196L119.632 71.7067Z" fill="white"/>
<path d="M121.312 100.965L122.186 102.478L121.334 103.991L119.565 104.012L118.691 102.499L119.544 100.986L121.312 100.965Z" fill="white"/>
<path d="M94.2734 115.881L95.1684 117.394L94.2947 118.929H92.5473L91.6523 117.416L92.526 115.903L94.2734 115.881Z" fill="white"/>
<path d="M103.5 101.54L104.374 103.053L103.521 104.566L101.753 104.587L100.879 103.074L101.731 101.54H103.5Z" fill="white"/>
<path d="M61.2453 72.6657L55.918 63.46L61.2453 54.2543H71.8788L77.2062 63.46L71.8788 72.6657H61.2453Z" fill="white"/>
<path d="M60.9897 93.5063L55.6836 84.3006L60.9897 75.0948H71.6444L76.9505 84.3006L71.6444 93.5063H60.9897Z" fill="white"/>
<path d="M78.8899 62.9272L73.5625 53.7215L78.8899 44.4945H89.5233L94.8294 53.7215L89.5233 62.9272H78.8899Z" fill="white"/>
<path d="M96.767 73.1558L91.4609 63.9501L96.767 54.7444H107.4L112.728 63.9501L107.4 73.1558H96.767Z" fill="white"/>
<path d="M97.1555 92.8884L91.8281 83.6826L97.1555 74.4769H107.789L113.095 83.6826L107.789 92.8884H97.1555Z" fill="white"/>
<path d="M79.1225 103.394L73.8164 94.1669L79.1225 84.9612H89.7559L95.0833 94.1669L89.7559 103.394H79.1225Z" fill="white"/>
</g>
<path d="M148.589 69V47.0725H152.041L162.046 60.8171C162.174 60.945 162.312 61.1261 162.462 61.3605C162.632 61.5949 162.792 61.8293 162.941 62.0637C163.09 62.2982 163.197 62.4899 163.261 62.6391H163.421C163.421 62.3195 163.421 62.0105 163.421 61.7121C163.421 61.4138 163.421 61.1155 163.421 60.8171V47.0725H166.873V69H163.548L153.416 55.0955C153.245 54.8398 153.032 54.5202 152.776 54.1366C152.521 53.7317 152.329 53.4227 152.201 53.2096H152.041C152.041 53.508 152.041 53.817 152.041 54.1366C152.041 54.4349 152.041 54.7546 152.041 55.0955V69H148.589ZM180.342 69.3836C178.616 69.3836 177.167 69.0746 175.994 68.4566C174.844 67.8173 173.97 66.8477 173.373 65.5479C172.777 64.248 172.478 62.5965 172.478 60.5934C172.478 58.569 172.777 56.9175 173.373 55.6389C173.97 54.339 174.854 53.3801 176.026 52.7621C177.198 52.1229 178.658 51.8032 180.406 51.8032C182.004 51.8032 183.336 52.1122 184.401 52.7302C185.488 53.3268 186.308 54.2432 186.862 55.4791C187.416 56.7151 187.693 58.2707 187.693 60.1459V61.4245H175.899C175.941 62.6178 176.122 63.6193 176.442 64.4291C176.762 65.2176 177.241 65.8036 177.88 66.1871C178.541 66.5494 179.372 66.7305 180.374 66.7305C180.992 66.7305 181.546 66.656 182.036 66.5068C182.526 66.3363 182.941 66.1019 183.282 65.8036C183.623 65.4839 183.89 65.111 184.081 64.6848C184.273 64.2373 184.369 63.7365 184.369 63.1825H187.629C187.629 64.184 187.459 65.0684 187.118 65.8355C186.777 66.6027 186.276 67.2526 185.616 67.7854C184.976 68.2968 184.209 68.691 183.314 68.968C182.419 69.2451 181.428 69.3836 180.342 69.3836ZM175.963 58.9952H184.209C184.209 58.1641 184.113 57.4715 183.922 56.9175C183.751 56.3421 183.495 55.8733 183.154 55.5111C182.814 55.1488 182.409 54.8931 181.94 54.7439C181.471 54.5735 180.938 54.4882 180.342 54.4882C179.447 54.4882 178.679 54.648 178.04 54.9677C177.422 55.2873 176.943 55.7881 176.602 56.47C176.261 57.1306 176.048 57.9723 175.963 58.9952ZM190.948 69L196.957 60.3696L191.299 52.1868H195.327L199.034 57.8125H199.226L202.966 52.1868H206.77L201.08 60.2738L207.089 69H203.094L199.003 62.8309H198.843L194.751 69H190.948ZM216.656 69.3836C215.037 69.3836 213.726 68.9574 212.725 68.105C211.723 67.2313 211.222 65.7503 211.222 63.662V52.1868H214.547V63.1505C214.547 63.7898 214.621 64.3226 214.77 64.7488C214.941 65.1749 215.175 65.5159 215.474 65.7716C215.772 66.0273 216.124 66.2085 216.528 66.315C216.933 66.4215 217.381 66.4748 217.871 66.4748C218.638 66.4748 219.331 66.2937 219.949 65.9314C220.588 65.5479 221.099 65.0258 221.483 64.3652C221.866 63.6833 222.058 62.9055 222.058 62.0318V52.1868H225.383V69H222.666L222.378 66.6027H222.154C221.749 67.2207 221.27 67.7321 220.716 68.137C220.162 68.5418 219.544 68.8508 218.862 69.0639C218.201 69.277 217.466 69.3836 216.656 69.3836ZM237.633 69.3836C236.461 69.3836 235.428 69.2557 234.533 69C233.638 68.7443 232.892 68.3927 232.295 67.9452C231.699 67.4977 231.241 66.9649 230.921 66.347C230.623 65.7077 230.473 65.0045 230.473 64.2373C230.473 64.1308 230.473 64.0349 230.473 63.9496C230.495 63.8644 230.505 63.7898 230.505 63.7259H233.798C233.798 63.7898 233.798 63.8538 233.798 63.9177C233.798 63.9603 233.798 64.0136 233.798 64.0775C233.798 64.7381 233.979 65.2708 234.341 65.6757C234.703 66.0593 235.183 66.3363 235.779 66.5068C236.397 66.656 237.069 66.7305 237.793 66.7305C238.432 66.7305 239.018 66.656 239.551 66.5068C240.105 66.3363 240.553 66.0912 240.894 65.7716C241.256 65.452 241.437 65.0471 241.437 64.557C241.437 63.9177 241.213 63.4276 240.766 63.0866C240.318 62.7457 239.732 62.4793 239.008 62.2875C238.283 62.0744 237.527 61.8507 236.738 61.6162C236.035 61.4245 235.332 61.222 234.629 61.0089C233.947 60.7745 233.329 60.4762 232.775 60.1139C232.221 59.7517 231.773 59.2935 231.432 58.7395C231.091 58.1854 230.921 57.4929 230.921 56.6618C230.921 55.8733 231.091 55.1808 231.432 54.5841C231.773 53.9874 232.242 53.4867 232.839 53.0818C233.457 52.6769 234.181 52.3679 235.012 52.1548C235.865 51.9417 236.792 51.8352 237.793 51.8352C238.837 51.8352 239.764 51.9524 240.574 52.1868C241.384 52.3999 242.066 52.7089 242.62 53.1138C243.195 53.5186 243.632 54.0087 243.93 54.5841C244.229 55.1382 244.378 55.7348 244.378 56.3741C244.378 56.502 244.367 56.6405 244.346 56.7896C244.346 56.9175 244.346 57.0027 244.346 57.0454H241.086V56.7577C241.086 56.3315 240.968 55.9479 240.734 55.607C240.499 55.266 240.127 54.989 239.615 54.7759C239.125 54.5628 238.464 54.4562 237.633 54.4562C237.079 54.4562 236.589 54.5095 236.163 54.6161C235.737 54.7013 235.385 54.8292 235.108 54.9996C234.831 55.1701 234.618 55.3726 234.469 55.607C234.341 55.8414 234.277 56.1077 234.277 56.4061C234.277 56.8962 234.448 57.2798 234.789 57.5568C235.151 57.8125 235.62 58.0362 236.195 58.228C236.77 58.3985 237.388 58.5903 238.049 58.8034C238.816 59.0165 239.594 59.2402 240.382 59.4746C241.171 59.6877 241.895 59.9648 242.556 60.3057C243.238 60.6467 243.781 61.1155 244.186 61.7121C244.612 62.3088 244.825 63.1079 244.825 64.1095C244.825 65.0258 244.644 65.8249 244.282 66.5068C243.92 67.1887 243.408 67.7427 242.748 68.1689C242.108 68.5738 241.352 68.8721 240.478 69.0639C239.604 69.277 238.656 69.3836 237.633 69.3836ZM156.708 107.384C155.515 107.384 154.364 107.256 153.256 107C152.148 106.766 151.168 106.382 150.315 105.849C149.463 105.295 148.792 104.603 148.301 103.772C147.811 102.919 147.566 101.907 147.566 100.735C147.566 100.607 147.566 100.49 147.566 100.383C147.588 100.256 147.598 100.149 147.598 100.064H151.178C151.178 100.128 151.168 100.224 151.146 100.351C151.146 100.479 151.146 100.586 151.146 100.671C151.146 101.46 151.381 102.131 151.849 102.685C152.318 103.239 152.968 103.654 153.799 103.931C154.652 104.208 155.621 104.347 156.708 104.347C157.305 104.347 157.88 104.315 158.434 104.251C158.988 104.166 159.489 104.049 159.936 103.899C160.405 103.729 160.81 103.527 161.151 103.292C161.492 103.036 161.758 102.738 161.95 102.397C162.142 102.056 162.238 101.662 162.238 101.214C162.238 100.533 162.035 99.9679 161.631 99.5204C161.247 99.0729 160.714 98.6999 160.032 98.4016C159.372 98.1033 158.615 97.8369 157.763 97.6025C156.932 97.3681 156.069 97.1337 155.174 96.8993C154.279 96.6649 153.405 96.3879 152.553 96.0682C151.722 95.7486 150.965 95.365 150.283 94.9175C149.623 94.4487 149.09 93.8733 148.685 93.1914C148.301 92.4882 148.11 91.6358 148.11 90.6343C148.11 89.6754 148.312 88.823 148.717 88.0771C149.122 87.3313 149.708 86.7133 150.475 86.2232C151.242 85.7118 152.158 85.3282 153.224 85.0725C154.289 84.8168 155.493 84.6889 156.836 84.6889C157.987 84.6889 159.073 84.8168 160.096 85.0725C161.119 85.3069 162.014 85.6798 162.781 86.1912C163.548 86.7027 164.145 87.3526 164.571 88.1411C165.019 88.9295 165.243 89.8671 165.243 90.9539V91.3375H161.694V90.922C161.694 90.2401 161.492 89.6647 161.087 89.1959C160.682 88.7271 160.118 88.3648 159.393 88.1091C158.669 87.8534 157.827 87.7255 156.868 87.7255C155.738 87.7255 154.79 87.8427 154.023 88.0771C153.256 88.2902 152.67 88.5992 152.265 89.0041C151.881 89.3877 151.69 89.8565 151.69 90.4105C151.69 91.0285 151.892 91.5399 152.297 91.9448C152.702 92.3284 153.235 92.6587 153.895 92.9357C154.577 93.2127 155.334 93.4685 156.165 93.7029C157.017 93.916 157.88 94.1504 158.754 94.4061C159.649 94.6405 160.512 94.9175 161.343 95.2371C162.195 95.5568 162.952 95.951 163.612 96.4198C164.294 96.8886 164.838 97.4746 165.243 98.1779C165.647 98.8598 165.85 99.7015 165.85 100.703C165.85 102.28 165.456 103.569 164.667 104.571C163.879 105.551 162.792 106.265 161.407 106.712C160.043 107.16 158.477 107.384 156.708 107.384ZM178.473 107.384C176.726 107.384 175.245 107.075 174.03 106.457C172.837 105.817 171.931 104.848 171.313 103.548C170.717 102.248 170.418 100.596 170.418 98.5934C170.418 96.569 170.717 94.9175 171.313 93.6389C171.931 92.339 172.837 91.3801 174.03 90.7621C175.245 90.1229 176.726 89.8032 178.473 89.8032C180.263 89.8032 181.755 90.1229 182.948 90.7621C184.142 91.3801 185.037 92.339 185.633 93.6389C186.251 94.9175 186.56 96.569 186.56 98.5934C186.56 100.596 186.251 102.248 185.633 103.548C185.037 104.848 184.142 105.817 182.948 106.457C181.755 107.075 180.263 107.384 178.473 107.384ZM178.473 104.635C179.539 104.635 180.412 104.432 181.094 104.027C181.776 103.601 182.277 102.962 182.597 102.109C182.938 101.257 183.108 100.181 183.108 98.8811V98.3057C183.108 97.0058 182.938 95.9297 182.597 95.0773C182.277 94.2249 181.776 93.5963 181.094 93.1914C180.412 92.7652 179.539 92.5521 178.473 92.5521C177.429 92.5521 176.566 92.7652 175.884 93.1914C175.202 93.5963 174.691 94.2249 174.35 95.0773C174.03 95.9297 173.87 97.0058 173.87 98.3057V98.8811C173.87 100.181 174.03 101.257 174.35 102.109C174.691 102.962 175.202 103.601 175.884 104.027C176.566 104.432 177.429 104.635 178.473 104.635ZM192.442 107V92.9357H189.981V90.1868H192.442V87.7575C192.442 87.0543 192.548 86.3937 192.761 85.7757C192.996 85.1577 193.39 84.6463 193.944 84.2414C194.52 83.8365 195.329 83.6341 196.373 83.6341C196.672 83.6341 196.97 83.6554 197.268 83.698C197.588 83.7193 197.886 83.762 198.163 83.8259C198.44 83.8898 198.686 83.9644 198.899 84.0496V86.383H197.268C196.757 86.383 196.373 86.5109 196.118 86.7666C195.883 87.0223 195.766 87.3952 195.766 87.8854V90.1868H198.899V92.9357H195.766V107H192.442ZM207.017 107.384C206.058 107.384 205.301 107.202 204.747 106.84C204.214 106.457 203.831 105.977 203.596 105.402C203.383 104.805 203.277 104.176 203.277 103.516V92.9357H201.167V90.1868H203.341L203.948 85.488H206.601V90.1868H209.638V92.9357H206.601V103.132C206.601 103.622 206.708 103.995 206.921 104.251C207.134 104.507 207.485 104.635 207.976 104.635H209.638V106.872C209.425 106.957 209.158 107.032 208.839 107.096C208.54 107.181 208.231 107.245 207.912 107.288C207.592 107.352 207.294 107.384 207.017 107.384ZM217.459 107L212.409 90.1868H215.861L218.322 99.3925C218.45 99.84 218.556 100.309 218.642 100.799C218.748 101.289 218.844 101.726 218.929 102.109C219.015 102.493 219.078 102.759 219.121 102.909H219.313C219.398 102.525 219.494 102.088 219.601 101.598C219.707 101.108 219.803 100.66 219.888 100.256C219.973 99.8293 220.037 99.5097 220.08 99.2966L222.317 90.1868H225.897L228.199 99.3286C228.284 99.6695 228.369 100.064 228.455 100.511C228.561 100.937 228.657 101.364 228.742 101.79C228.849 102.216 228.923 102.589 228.966 102.909H229.158C229.222 102.61 229.296 102.259 229.382 101.854C229.488 101.428 229.595 101.001 229.701 100.575C229.808 100.149 229.904 99.7548 229.989 99.3925L232.418 90.1868H235.583L230.564 107H227.112L225.066 98.6254C224.981 98.2205 224.875 97.7517 224.747 97.2189C224.619 96.6862 224.502 96.1535 224.395 95.6207C224.289 95.088 224.203 94.6192 224.139 94.2143H223.948C223.905 94.4487 223.841 94.7896 223.756 95.2371C223.692 95.6846 223.596 96.1961 223.468 96.7714C223.34 97.3468 223.191 97.9648 223.021 98.6254L220.911 107H217.459ZM243.778 107.384C243.246 107.384 242.67 107.32 242.052 107.192C241.434 107.064 240.848 106.83 240.294 106.489C239.761 106.148 239.325 105.679 238.984 105.082C238.643 104.464 238.472 103.665 238.472 102.685C238.472 101.534 238.739 100.586 239.271 99.84C239.804 99.0942 240.55 98.5082 241.509 98.082C242.468 97.6558 243.608 97.3574 244.929 97.187C246.271 97.0165 247.731 96.9312 249.308 96.9312V95.2691C249.308 94.7151 249.212 94.2249 249.02 93.7987C248.85 93.3726 248.52 93.0423 248.029 92.8079C247.561 92.5735 246.879 92.4562 245.984 92.4562C245.089 92.4562 244.386 92.5735 243.874 92.8079C243.384 93.021 243.032 93.298 242.819 93.6389C242.628 93.9586 242.532 94.3102 242.532 94.6937V95.1732H239.335C239.314 95.0667 239.303 94.9601 239.303 94.8536C239.303 94.747 239.303 94.6192 239.303 94.47C239.303 93.4685 239.58 92.6267 240.134 91.9448C240.71 91.2416 241.509 90.7089 242.532 90.3466C243.554 89.9843 244.737 89.8032 246.08 89.8032C247.529 89.8032 248.733 90.0163 249.692 90.4425C250.672 90.8474 251.407 91.4334 251.897 92.2005C252.387 92.9677 252.632 93.8946 252.632 94.9814V103.516C252.632 103.921 252.728 104.208 252.92 104.379C253.133 104.549 253.378 104.635 253.655 104.635H254.806V106.872C254.55 106.979 254.231 107.085 253.847 107.192C253.463 107.298 253.016 107.352 252.504 107.352C251.929 107.352 251.439 107.245 251.034 107.032C250.651 106.84 250.331 106.563 250.075 106.201C249.841 105.817 249.681 105.391 249.596 104.922H249.404C249.02 105.412 248.552 105.849 247.998 106.233C247.465 106.595 246.847 106.872 246.144 107.064C245.44 107.277 244.652 107.384 243.778 107.384ZM244.705 104.635C245.366 104.635 245.973 104.539 246.527 104.347C247.103 104.134 247.593 103.846 247.998 103.484C248.402 103.1 248.722 102.653 248.956 102.141C249.191 101.609 249.308 101.033 249.308 100.415V99.2966C247.838 99.2966 246.548 99.3818 245.44 99.5523C244.332 99.7228 243.469 100.042 242.851 100.511C242.233 100.959 241.924 101.587 241.924 102.397C241.924 102.887 242.031 103.303 242.244 103.644C242.457 103.963 242.777 104.208 243.203 104.379C243.629 104.549 244.13 104.635 244.705 104.635ZM258.859 107V90.1868H261.608L261.896 92.9037H262.088C262.279 92.371 262.524 91.8702 262.823 91.4014C263.142 90.9326 263.547 90.549 264.037 90.2507C264.549 89.9524 265.167 89.8032 265.891 89.8032C266.232 89.8032 266.531 89.8352 266.786 89.8991C267.063 89.963 267.276 90.0163 267.426 90.0589V93.1914H266.307C265.625 93.1914 265.018 93.298 264.485 93.5111C263.973 93.7242 263.537 94.0438 263.174 94.47C262.833 94.8749 262.578 95.3757 262.407 95.9723C262.258 96.569 262.183 97.2402 262.183 97.9861V107H258.859ZM278.323 107.384C276.597 107.384 275.148 107.075 273.976 106.457C272.826 105.817 271.952 104.848 271.355 103.548C270.759 102.248 270.46 100.596 270.46 98.5934C270.46 96.569 270.759 94.9175 271.355 93.6389C271.952 92.339 272.836 91.3801 274.008 90.7621C275.18 90.1229 276.64 89.8032 278.387 89.8032C279.986 89.8032 281.317 90.1122 282.383 90.7302C283.47 91.3268 284.29 92.2432 284.844 93.4791C285.398 94.7151 285.675 96.2707 285.675 98.1459V99.4245H273.88C273.923 100.618 274.104 101.619 274.424 102.429C274.743 103.218 275.223 103.804 275.862 104.187C276.523 104.549 277.354 104.731 278.355 104.731C278.973 104.731 279.527 104.656 280.018 104.507C280.508 104.336 280.923 104.102 281.264 103.804C281.605 103.484 281.871 103.111 282.063 102.685C282.255 102.237 282.351 101.737 282.351 101.182H285.611C285.611 102.184 285.441 103.068 285.1 103.836C284.759 104.603 284.258 105.253 283.598 105.785C282.958 106.297 282.191 106.691 281.296 106.968C280.401 107.245 279.41 107.384 278.323 107.384ZM273.944 96.9952H282.191C282.191 96.1641 282.095 95.4715 281.903 94.9175C281.733 94.3421 281.477 93.8733 281.136 93.5111C280.795 93.1488 280.39 92.8931 279.922 92.7439C279.453 92.5735 278.92 92.4882 278.323 92.4882C277.428 92.4882 276.661 92.648 276.022 92.9677C275.404 93.2873 274.925 93.7881 274.584 94.47C274.243 95.1306 274.03 95.9723 273.944 96.9952Z" fill="white"/>
<defs>
<clipPath id="clip0_644_394">
<rect width="170.476" height="149.167" fill="white"/>
</clipPath>
</defs>
</svg>
