<svg width="273" height="83" viewBox="0 0 273 83" fill="none" xmlns="http://www.w3.org/2000/svg">
<path d="M56.034 75.7267L48.9372 79.6513C46.1023 81.2187 42.8718 82.0479 39.597 82.0479C36.3239 82.0479 33.0948 81.2187 30.2583 79.6513L23.1616 75.7273L38.1028 67.465C38.6545 67.1604 39.153 66.7904 39.5985 66.3729C40.0411 66.7903 40.5413 67.1596 41.0926 67.4641L56.034 75.7267ZM14.9425 52.1783C15.8643 51.6691 16.4369 50.7189 16.4369 49.7003V35.2402C16.4369 30.9081 18.8708 26.8719 22.7872 24.7061L33.2468 18.9224C35.1749 17.8558 37.3713 17.292 39.5985 17.292C41.8247 17.292 44.0208 17.8558 45.9488 18.9224L56.4088 24.7054C60.325 26.8719 62.7587 30.9081 62.7587 35.2402C62.7587 35.2424 62.7587 35.2437 62.7587 35.2459V49.7004C62.7587 50.719 63.3312 51.6691 64.253 52.1784L77.6881 59.6078C78.6649 57.421 79.1941 55.0384 79.1941 52.5922V29.4572C79.1956 23.0864 75.6173 17.15 69.8568 13.9643L48.9372 2.39672C46.1023 0.829242 42.8718 0 39.597 0C36.3239 0 33.0935 0.829242 30.2583 2.39672L9.33868 13.9643C3.57853 17.1494 0 23.0863 0 29.4572V52.5916C0 55.0384 0.529606 57.421 1.50606 59.6078L14.9425 52.1783ZM39.603 28.0846C40.9112 28.0853 42.2021 28.416 43.3366 29.0432L48.5654 31.935C50.8696 33.2092 52.3006 35.5841 52.3006 38.1313C52.3006 38.1328 52.3006 38.1328 52.3006 38.1328L52.3022 53.0041C52.3022 55.5521 53.7329 57.9267 56.0371 59.201L70.9355 67.4401C72.6893 66.3106 74.2073 64.9134 75.4489 63.3263L62.0128 55.8968C59.7086 54.6225 58.2776 52.2477 58.2776 49.7005V35.2409C58.2776 32.4372 56.7024 29.8259 54.1682 28.4244L43.7085 22.6393C42.462 21.9498 41.0414 21.5853 39.5988 21.5853C38.1561 21.5853 36.7356 21.9498 35.4892 22.6393L25.0293 28.4244C22.4951 29.8259 20.9198 32.4372 20.9198 35.2409V49.7004C20.9198 52.2476 19.4888 54.6225 17.1848 55.8967L3.7483 63.3262C4.99029 64.9133 6.50809 66.3106 8.26211 67.44L23.1605 59.2009C25.4645 57.9265 26.8954 55.5519 26.8954 53.004L26.8967 38.1327C26.8967 38.1327 26.8967 38.1327 26.8967 38.1312C26.8967 35.5841 28.3277 33.2092 30.6317 31.9349L35.8607 29.0431C36.9952 28.4158 38.286 28.0852 39.5943 28.0845H39.603V28.0846ZM39.597 32.378C39.0718 32.378 38.5557 32.5107 38.1028 32.7615L32.8737 35.6534C31.9517 36.1634 31.3793 37.1127 31.3793 38.132V55.4839C31.3793 58.0313 29.9471 60.406 27.6429 61.6802L12.7004 69.9434L18.6788 73.248L33.6199 64.9848C35.9226 63.7105 37.3549 61.3357 37.3549 58.7879L37.3564 39.7844L39.597 38.5453H39.6001L41.8406 39.7844L41.8421 58.7879C41.8421 61.3357 43.2746 63.7106 45.5773 64.9848L60.5183 73.248L66.4967 69.9434L51.5542 61.6802C49.25 60.406 47.8178 58.0313 47.8178 55.4839V38.1321C47.8178 37.1128 47.2454 36.1634 46.3235 35.6535L41.0945 32.7616C40.6416 32.5108 40.1254 32.3781 39.6002 32.3781H39.597V32.378Z" fill="white"/>
<path d="M107.166 34.9679C105.233 34.9679 103.586 34.6274 102.224 33.9464C100.881 33.2471 99.85 32.1704 99.1322 30.7165C98.4145 29.2626 98.0556 27.4129 98.0556 25.1676C98.0556 21.8549 98.8562 19.3979 100.457 17.7967C102.077 16.1772 104.322 15.3674 107.193 15.3674C108.776 15.3674 110.193 15.6342 111.445 16.168C112.715 16.7017 113.708 17.5023 114.426 18.5697C115.162 19.6187 115.53 20.9623 115.53 22.6002H112.383C112.383 21.588 112.172 20.7414 111.748 20.0604C111.325 19.3795 110.718 18.8642 109.926 18.5145C109.153 18.1648 108.252 17.99 107.221 17.99C105.933 17.99 104.838 18.2476 103.936 18.7629C103.052 19.2599 102.381 20.0144 101.92 21.0267C101.479 22.0389 101.258 23.3272 101.258 24.8916V25.4989C101.258 27.0633 101.479 28.3516 101.92 29.3638C102.381 30.376 103.052 31.1306 103.936 31.6275C104.819 32.106 105.914 32.3453 107.221 32.3453C108.288 32.3453 109.218 32.1796 110.009 31.8484C110.801 31.4987 111.408 30.9834 111.831 30.3024C112.273 29.6214 112.494 28.7748 112.494 27.7626H115.53C115.53 29.4006 115.162 30.7533 114.426 31.8207C113.708 32.8882 112.715 33.6796 111.445 34.1949C110.193 34.7102 108.767 34.9679 107.166 34.9679ZM123.774 34.9679C123.314 34.9679 122.817 34.9127 122.283 34.8022C121.749 34.6918 121.243 34.4894 120.765 34.1949C120.305 33.9004 119.927 33.4955 119.633 32.9802C119.338 32.4465 119.191 31.7563 119.191 30.9097C119.191 29.9159 119.421 29.0969 119.881 28.4528C120.342 27.8086 120.986 27.3025 121.814 26.9344C122.642 26.5663 123.627 26.3087 124.768 26.1614C125.927 26.0142 127.188 25.9406 128.55 25.9406V24.5051C128.55 24.0266 128.467 23.6033 128.301 23.2352C128.154 22.8671 127.869 22.5818 127.446 22.3794C127.041 22.1769 126.452 22.0757 125.679 22.0757C124.906 22.0757 124.298 22.1769 123.857 22.3794C123.433 22.5634 123.13 22.8027 122.946 23.0971C122.78 23.3732 122.697 23.6769 122.697 24.0082V24.4222H119.937C119.918 24.3302 119.909 24.2382 119.909 24.1462C119.909 24.0542 119.909 23.9437 119.909 23.8149C119.909 22.9499 120.148 22.2229 120.627 21.634C121.124 21.0267 121.814 20.5666 122.697 20.2537C123.581 19.9408 124.602 19.7844 125.762 19.7844C127.013 19.7844 128.053 19.9684 128.881 20.3365C129.728 20.6862 130.363 21.1923 130.786 21.8549C131.209 22.5174 131.421 23.318 131.421 24.2566V31.6275C131.421 31.9772 131.504 32.2256 131.669 32.3729C131.853 32.5201 132.065 32.5937 132.304 32.5937H133.298V34.5262C133.077 34.6182 132.801 34.7102 132.47 34.8022C132.139 34.8943 131.752 34.9403 131.31 34.9403C130.814 34.9403 130.39 34.8482 130.041 34.6642C129.709 34.4986 129.433 34.2593 129.212 33.9464C129.01 33.6152 128.872 33.2471 128.798 32.8422H128.633C128.301 33.2655 127.896 33.6428 127.418 33.974C126.958 34.2869 126.424 34.5262 125.817 34.6918C125.209 34.8759 124.528 34.9679 123.774 34.9679ZM124.574 32.5937C125.145 32.5937 125.67 32.5109 126.148 32.3453C126.645 32.1612 127.068 31.9128 127.418 31.5999C127.768 31.2686 128.044 30.8821 128.246 30.4404C128.449 29.9803 128.55 29.4834 128.55 28.9497V27.9835C127.28 27.9835 126.166 28.0571 125.209 28.2043C124.252 28.3516 123.507 28.6276 122.973 29.0325C122.44 29.419 122.173 29.9619 122.173 30.6613C122.173 31.0846 122.265 31.4435 122.449 31.7379C122.633 32.014 122.909 32.2256 123.277 32.3729C123.645 32.5201 124.078 32.5937 124.574 32.5937ZM136.799 34.6366V20.1157H139.173L139.421 22.4622H139.587C139.753 22.0021 139.964 21.5696 140.222 21.1647C140.498 20.7598 140.848 20.4285 141.271 20.1709C141.713 19.9132 142.246 19.7844 142.872 19.7844C143.167 19.7844 143.424 19.812 143.645 19.8672C143.884 19.9224 144.068 19.9684 144.197 20.0052V22.7107H143.231C142.642 22.7107 142.118 22.8027 141.657 22.9867C141.216 23.1708 140.838 23.4468 140.526 23.8149C140.231 24.1646 140.01 24.5971 139.863 25.1124C139.734 25.6277 139.67 26.2075 139.67 26.8516V34.6366H136.799ZM152.588 34.9679C151.41 34.9679 150.389 34.701 149.524 34.1673C148.659 33.6336 147.987 32.8054 147.508 31.6827C147.048 30.5601 146.818 29.1061 146.818 27.3209C146.818 25.5725 147.057 24.1462 147.536 23.0419C148.014 21.9377 148.677 21.1187 149.524 20.585C150.37 20.0512 151.346 19.7844 152.45 19.7844C153.094 19.7844 153.692 19.858 154.244 20.0052C154.796 20.1525 155.284 20.3825 155.707 20.6954C156.149 21.0083 156.517 21.404 156.812 21.8825H157.005V14.6772H159.876V34.6366H157.529L157.253 32.6489H157.06C156.582 33.4219 155.947 34.0017 155.155 34.3881C154.382 34.7746 153.526 34.9679 152.588 34.9679ZM153.388 32.4833C154.235 32.4833 154.916 32.2993 155.431 31.9312C155.965 31.5447 156.361 30.9926 156.618 30.2748C156.876 29.5386 157.005 28.646 157.005 27.597V27.2105C157.005 26.3271 156.922 25.5725 156.756 24.9468C156.591 24.321 156.351 23.8149 156.039 23.4284C155.726 23.0235 155.348 22.7291 154.907 22.545C154.465 22.361 153.968 22.269 153.416 22.269C152.569 22.269 151.879 22.4438 151.346 22.7935C150.812 23.1247 150.416 23.6493 150.158 24.367C149.919 25.0848 149.8 26.0142 149.8 27.1553V27.6522C149.8 28.7933 149.928 29.7227 150.186 30.4404C150.444 31.1398 150.83 31.6551 151.346 31.9864C151.879 32.3177 152.56 32.4833 153.388 32.4833ZM168.768 34.9679C168.308 34.9679 167.811 34.9127 167.277 34.8022C166.743 34.6918 166.237 34.4894 165.759 34.1949C165.299 33.9004 164.921 33.4955 164.627 32.9802C164.333 32.4465 164.185 31.7563 164.185 30.9097C164.185 29.9159 164.415 29.0969 164.875 28.4528C165.336 27.8086 165.98 27.3025 166.808 26.9344C167.636 26.5663 168.621 26.3087 169.762 26.1614C170.921 26.0142 172.182 25.9406 173.544 25.9406V24.5051C173.544 24.0266 173.461 23.6033 173.295 23.2352C173.148 22.8671 172.863 22.5818 172.44 22.3794C172.035 22.1769 171.446 22.0757 170.673 22.0757C169.9 22.0757 169.292 22.1769 168.851 22.3794C168.427 22.5634 168.124 22.8027 167.94 23.0971C167.774 23.3732 167.691 23.6769 167.691 24.0082V24.4222H164.931C164.912 24.3302 164.903 24.2382 164.903 24.1462C164.903 24.0542 164.903 23.9437 164.903 23.8149C164.903 22.9499 165.142 22.2229 165.621 21.634C166.118 21.0267 166.808 20.5666 167.691 20.2537C168.575 19.9408 169.596 19.7844 170.756 19.7844C172.007 19.7844 173.047 19.9684 173.875 20.3365C174.722 20.6862 175.357 21.1923 175.78 21.8549C176.203 22.5174 176.415 23.318 176.415 24.2566V31.6275C176.415 31.9772 176.498 32.2256 176.663 32.3729C176.847 32.5201 177.059 32.5937 177.298 32.5937H178.292V34.5262C178.071 34.6182 177.795 34.7102 177.464 34.8022C177.133 34.8943 176.746 34.9403 176.304 34.9403C175.808 34.9403 175.384 34.8482 175.035 34.6642C174.703 34.4986 174.427 34.2593 174.206 33.9464C174.004 33.6152 173.866 33.2471 173.792 32.8422H173.627C173.295 33.2655 172.89 33.6428 172.412 33.974C171.952 34.2869 171.418 34.5262 170.811 34.6918C170.203 34.8759 169.523 34.9679 168.768 34.9679ZM169.569 32.5937C170.139 32.5937 170.664 32.5109 171.142 32.3453C171.639 32.1612 172.062 31.9128 172.412 31.5999C172.762 31.2686 173.038 30.8821 173.24 30.4404C173.443 29.9803 173.544 29.4834 173.544 28.9497V27.9835C172.274 27.9835 171.16 28.0571 170.203 28.2043C169.246 28.3516 168.501 28.6276 167.967 29.0325C167.434 29.419 167.167 29.9619 167.167 30.6613C167.167 31.0846 167.259 31.4435 167.443 31.7379C167.627 32.014 167.903 32.2256 168.271 32.3729C168.639 32.5201 169.072 32.5937 169.569 32.5937ZM181.793 34.6366V20.1157H184.167L184.415 22.1861H184.609C184.958 21.6524 185.372 21.2107 185.851 20.861C186.329 20.5113 186.854 20.2445 187.424 20.0604C188.013 19.8764 188.658 19.7844 189.357 19.7844C190.277 19.7844 191.087 19.95 191.786 20.2813C192.486 20.5942 193.029 21.1095 193.415 21.8273C193.82 22.545 194.022 23.5112 194.022 24.7259V34.6366H191.151V25.1676C191.151 24.6155 191.078 24.1554 190.93 23.7873C190.802 23.4192 190.608 23.1247 190.351 22.9039C190.093 22.683 189.789 22.5266 189.44 22.4346C189.09 22.3426 188.704 22.2966 188.28 22.2966C187.618 22.2966 187.01 22.4622 186.458 22.7935C185.924 23.1063 185.492 23.548 185.161 24.1186C184.829 24.6891 184.664 25.3609 184.664 26.1338V34.6366H181.793ZM205.32 34.9679C203.811 34.9679 202.532 34.701 201.483 34.1673C200.452 33.6152 199.67 32.7778 199.136 31.6551C198.621 30.5325 198.363 29.1061 198.363 27.3761C198.363 25.6277 198.621 24.2014 199.136 23.0971C199.67 21.9745 200.452 21.1463 201.483 20.6126C202.532 20.0604 203.811 19.7844 205.32 19.7844C206.866 19.7844 208.154 20.0604 209.185 20.6126C210.216 21.1463 210.989 21.9745 211.504 23.0971C212.038 24.2014 212.304 25.6277 212.304 27.3761C212.304 29.1061 212.038 30.5325 211.504 31.6551C210.989 32.7778 210.216 33.6152 209.185 34.1673C208.154 34.701 206.866 34.9679 205.32 34.9679ZM205.32 32.5937C206.24 32.5937 206.995 32.4189 207.584 32.0692C208.173 31.7011 208.605 31.149 208.881 30.4128C209.176 29.6767 209.323 28.7472 209.323 27.6246V27.1277C209.323 26.005 209.176 25.0756 208.881 24.3394C208.605 23.6033 208.173 23.0603 207.584 22.7107C206.995 22.3426 206.24 22.1585 205.32 22.1585C204.418 22.1585 203.673 22.3426 203.084 22.7107C202.495 23.0603 202.053 23.6033 201.759 24.3394C201.483 25.0756 201.345 26.005 201.345 27.1277V27.6246C201.345 28.7472 201.483 29.6767 201.759 30.4128C202.053 31.149 202.495 31.7011 203.084 32.0692C203.673 32.4189 204.418 32.5937 205.32 32.5937ZM98.9666 68.6366V49.6986H109.015C110.064 49.6986 110.985 49.8919 111.776 50.2784C112.567 50.6465 113.184 51.1802 113.626 51.8795C114.086 52.5789 114.316 53.3979 114.316 54.3365C114.316 55.0543 114.178 55.7076 113.902 56.2966C113.644 56.8855 113.276 57.3824 112.797 57.7873C112.337 58.1922 111.813 58.4959 111.224 58.6983V58.8087C111.905 58.956 112.512 59.232 113.046 59.6369C113.598 60.0234 114.03 60.5387 114.343 61.1829C114.675 61.8086 114.84 62.5632 114.84 63.4466C114.84 64.6429 114.573 65.6275 114.04 66.4005C113.524 67.1735 112.834 67.744 111.969 68.1121C111.104 68.4618 110.12 68.6366 109.015 68.6366H98.9666ZM102.058 65.9864H108.767C109.613 65.9864 110.304 65.7655 110.837 65.3238C111.389 64.8637 111.666 64.1276 111.666 63.1153C111.666 62.508 111.546 61.9927 111.307 61.5694C111.086 61.1277 110.745 60.7964 110.285 60.5755C109.825 60.3363 109.245 60.2167 108.546 60.2167H102.058V65.9864ZM102.058 57.6217H108.298C108.886 57.6217 109.393 57.5112 109.816 57.2904C110.239 57.0695 110.561 56.7567 110.782 56.3518C111.021 55.9469 111.141 55.496 111.141 54.9991C111.141 54.0973 110.893 53.4347 110.396 53.0114C109.917 52.5697 109.282 52.3489 108.491 52.3489H102.058V57.6217ZM119.482 68.6366V48.6772H122.353V68.6366H119.482ZM133.762 68.9679C132.253 68.9679 130.974 68.701 129.925 68.1673C128.895 67.6152 128.112 66.7778 127.579 65.6551C127.063 64.5325 126.806 63.1061 126.806 61.3761C126.806 59.6277 127.063 58.2014 127.579 57.0971C128.112 55.9745 128.895 55.1463 129.925 54.6126C130.974 54.0604 132.253 53.7844 133.762 53.7844C135.308 53.7844 136.597 54.0604 137.627 54.6126C138.658 55.1463 139.431 55.9745 139.946 57.0971C140.48 58.2014 140.747 59.6277 140.747 61.3761C140.747 63.1061 140.48 64.5325 139.946 65.6551C139.431 66.7778 138.658 67.6152 137.627 68.1673C136.597 68.701 135.308 68.9679 133.762 68.9679ZM133.762 66.5937C134.683 66.5937 135.437 66.4189 136.026 66.0692C136.615 65.7011 137.048 65.149 137.324 64.4128C137.618 63.6767 137.765 62.7472 137.765 61.6246V61.1277C137.765 60.005 137.618 59.0756 137.324 58.3394C137.048 57.6033 136.615 57.0603 136.026 56.7107C135.437 56.3426 134.683 56.1585 133.762 56.1585C132.861 56.1585 132.115 56.3426 131.526 56.7107C130.937 57.0603 130.496 57.6033 130.201 58.3394C129.925 59.0756 129.787 60.005 129.787 61.1277V61.6246C129.787 62.7472 129.925 63.6767 130.201 64.4128C130.496 65.149 130.937 65.7011 131.526 66.0692C132.115 66.4189 132.861 66.5937 133.762 66.5937ZM150.961 68.9679C149.507 68.9679 148.293 68.701 147.317 68.1673C146.342 67.6152 145.606 66.7778 145.109 65.6551C144.63 64.5325 144.391 63.1061 144.391 61.3761C144.391 59.6461 144.64 58.229 145.136 57.1247C145.633 56.0021 146.37 55.1647 147.345 54.6126C148.339 54.0604 149.553 53.7844 150.989 53.7844C151.983 53.7844 152.848 53.9132 153.584 54.1709C154.32 54.4101 154.946 54.7782 155.461 55.2751C155.977 55.7536 156.354 56.3518 156.593 57.0695C156.851 57.7873 156.98 58.6063 156.98 59.5265H154.081C154.081 58.7535 153.971 58.1186 153.75 57.6217C153.529 57.1247 153.188 56.7567 152.728 56.5174C152.268 56.2598 151.67 56.1309 150.934 56.1309C150.161 56.1309 149.507 56.315 148.974 56.683C148.44 57.0327 148.035 57.5757 147.759 58.3118C147.483 59.0296 147.345 59.9774 147.345 61.1553V61.6246C147.345 62.7472 147.474 63.6859 147.731 64.4404C148.008 65.1766 148.412 65.7287 148.946 66.0968C149.498 66.4465 150.198 66.6213 151.044 66.6213C151.78 66.6213 152.369 66.4925 152.811 66.2348C153.271 65.9588 153.612 65.5723 153.832 65.0754C154.072 64.5601 154.191 63.9435 154.191 63.2258H156.98C156.98 64.0908 156.851 64.8729 156.593 65.5723C156.354 66.2717 155.977 66.879 155.461 67.3943C154.964 67.8912 154.339 68.2777 153.584 68.5538C152.829 68.8298 151.955 68.9679 150.961 68.9679ZM161.403 68.6366V48.6772H164.274V60.7412L169.988 54.1157H173.384L168.47 59.7474L173.66 68.6366H170.347L166.62 61.8454L164.274 64.1644V68.6366H161.403ZM177.506 68.6366V48.6772H180.377V55.8549H180.571C180.92 55.4132 181.316 55.0451 181.758 54.7506C182.199 54.4377 182.696 54.1985 183.248 54.0328C183.8 53.8672 184.408 53.7844 185.07 53.7844C185.991 53.7844 186.8 53.95 187.5 54.2813C188.199 54.5942 188.742 55.1095 189.128 55.8273C189.533 56.545 189.736 57.5112 189.736 58.7259V68.6366H186.865V59.1676C186.865 58.6155 186.791 58.1554 186.644 57.7873C186.515 57.4192 186.322 57.1247 186.064 56.9039C185.807 56.683 185.503 56.5266 185.153 56.4346C184.803 56.3426 184.417 56.2966 183.994 56.2966C183.331 56.2966 182.724 56.453 182.172 56.7659C181.638 57.0787 181.205 57.5204 180.874 58.091C180.543 58.6615 180.377 59.3425 180.377 60.1338V68.6366H177.506ZM201.034 68.9679C199.524 68.9679 198.245 68.701 197.196 68.1673C196.166 67.6152 195.383 66.7778 194.85 65.6551C194.334 64.5325 194.077 63.1061 194.077 61.3761C194.077 59.6277 194.334 58.2014 194.85 57.0971C195.383 55.9745 196.166 55.1463 197.196 54.6126C198.245 54.0604 199.524 53.7844 201.034 53.7844C202.579 53.7844 203.868 54.0604 204.898 54.6126C205.929 55.1463 206.702 55.9745 207.217 57.0971C207.751 58.2014 208.018 59.6277 208.018 61.3761C208.018 63.1061 207.751 64.5325 207.217 65.6551C206.702 66.7778 205.929 67.6152 204.898 68.1673C203.868 68.701 202.579 68.9679 201.034 68.9679ZM201.034 66.5937C201.954 66.5937 202.708 66.4189 203.297 66.0692C203.886 65.7011 204.319 65.149 204.595 64.4128C204.889 63.6767 205.036 62.7472 205.036 61.6246V61.1277C205.036 60.005 204.889 59.0756 204.595 58.3394C204.319 57.6033 203.886 57.0603 203.297 56.7107C202.708 56.3426 201.954 56.1585 201.034 56.1585C200.132 56.1585 199.386 56.3426 198.797 56.7107C198.208 57.0603 197.767 57.6033 197.472 58.3394C197.196 59.0756 197.058 60.005 197.058 61.1277V61.6246C197.058 62.7472 197.196 63.6767 197.472 64.4128C197.767 65.149 198.208 65.7011 198.797 66.0692C199.386 66.4189 200.132 66.5937 201.034 66.5937ZM217.018 68.9679C215.619 68.9679 214.487 68.5998 213.622 67.8636C212.757 67.109 212.325 65.83 212.325 64.0263V54.1157H215.196V63.5846C215.196 64.1368 215.26 64.5969 215.389 64.965C215.536 65.333 215.739 65.6275 215.996 65.8484C216.254 66.0692 216.558 66.2256 216.907 66.3177C217.257 66.4097 217.644 66.4557 218.067 66.4557C218.729 66.4557 219.328 66.2993 219.861 65.9864C220.413 65.6551 220.855 65.2042 221.186 64.6337C221.518 64.0447 221.683 63.373 221.683 62.6184V54.1157H224.554V68.6366H222.208L221.959 66.5661H221.766C221.416 67.0998 221.002 67.5415 220.524 67.8912C220.045 68.2409 219.512 68.5078 218.923 68.6918C218.352 68.8759 217.717 68.9679 217.018 68.9679ZM235.135 68.9679C234.123 68.9679 233.23 68.8574 232.457 68.6366C231.684 68.4157 231.04 68.1121 230.525 67.7256C230.009 67.3391 229.614 66.879 229.338 66.3453C229.08 65.7931 228.951 65.1858 228.951 64.5233C228.951 64.4312 228.951 64.3484 228.951 64.2748C228.969 64.2012 228.979 64.1368 228.979 64.0815H231.822C231.822 64.1368 231.822 64.192 231.822 64.2472C231.822 64.284 231.822 64.33 231.822 64.3852C231.822 64.9558 231.979 65.4159 232.291 65.7655C232.604 66.0968 233.018 66.3361 233.534 66.4833C234.067 66.6121 234.647 66.6765 235.273 66.6765C235.825 66.6765 236.331 66.6121 236.791 66.4833C237.27 66.3361 237.656 66.1244 237.951 65.8484C238.264 65.5723 238.42 65.2226 238.42 64.7993C238.42 64.2472 238.227 63.8239 237.84 63.5294C237.454 63.235 236.948 63.0049 236.322 62.8393C235.696 62.6552 235.043 62.462 234.362 62.2595C233.755 62.0939 233.147 61.9191 232.54 61.735C231.951 61.5326 231.417 61.2749 230.939 60.962C230.46 60.6492 230.074 60.2535 229.779 59.775C229.485 59.2964 229.338 58.6983 229.338 57.9805C229.338 57.2996 229.485 56.7015 229.779 56.1861C230.074 55.6708 230.479 55.2383 230.994 54.8886C231.528 54.539 232.153 54.2721 232.871 54.0881C233.607 53.904 234.408 53.812 235.273 53.812C236.175 53.812 236.975 53.9132 237.675 54.1157C238.374 54.2997 238.963 54.5666 239.441 54.9162C239.938 55.2659 240.316 55.6892 240.573 56.1861C240.831 56.6646 240.96 57.18 240.96 57.7321C240.96 57.8425 240.951 57.9621 240.932 58.091C240.932 58.2014 240.932 58.275 240.932 58.3118H238.116V58.0634C238.116 57.6953 238.015 57.364 237.813 57.0695C237.61 56.7751 237.288 56.5358 236.846 56.3518C236.423 56.1677 235.853 56.0757 235.135 56.0757C234.656 56.0757 234.233 56.1217 233.865 56.2137C233.497 56.2874 233.193 56.3978 232.954 56.545C232.715 56.6923 232.531 56.8671 232.402 57.0695C232.291 57.272 232.236 57.502 232.236 57.7597C232.236 58.183 232.383 58.5143 232.678 58.7535C232.991 58.9744 233.396 59.1676 233.893 59.3333C234.39 59.4805 234.923 59.6461 235.494 59.8302C236.156 60.0142 236.828 60.2075 237.509 60.4099C238.19 60.5939 238.816 60.8332 239.386 61.1277C239.975 61.4221 240.445 61.827 240.794 62.3423C241.162 62.8577 241.346 63.5478 241.346 64.4128C241.346 65.2042 241.19 65.8944 240.877 66.4833C240.564 67.0722 240.122 67.5507 239.552 67.9188C239 68.2685 238.346 68.5262 237.592 68.6918C236.837 68.8759 236.018 68.9679 235.135 68.9679ZM251.793 68.9679C250.302 68.9679 249.051 68.701 248.038 68.1673C247.045 67.6152 246.29 66.7778 245.775 65.6551C245.259 64.5325 245.002 63.1061 245.002 61.3761C245.002 59.6277 245.259 58.2014 245.775 57.0971C246.29 55.9745 247.054 55.1463 248.066 54.6126C249.078 54.0604 250.339 53.7844 251.848 53.7844C253.228 53.7844 254.379 54.0512 255.299 54.585C256.238 55.1003 256.946 55.8917 257.425 56.9591C257.903 58.0266 258.142 59.3701 258.142 60.9896V62.0939H247.956C247.992 63.1245 248.149 63.9895 248.425 64.6889C248.701 65.3698 249.115 65.876 249.667 66.2072C250.238 66.5201 250.956 66.6765 251.821 66.6765C252.354 66.6765 252.833 66.6121 253.256 66.4833C253.679 66.3361 254.038 66.1336 254.333 65.876C254.627 65.5999 254.857 65.2778 255.023 64.9097C255.189 64.5233 255.271 64.0908 255.271 63.6122H258.087C258.087 64.4772 257.94 65.241 257.645 65.9036C257.351 66.5661 256.919 67.1274 256.348 67.5876C255.796 68.0293 255.133 68.3697 254.36 68.609C253.587 68.8482 252.732 68.9679 251.793 68.9679ZM248.011 59.9958H255.133C255.133 59.278 255.05 58.6799 254.885 58.2014C254.738 57.7045 254.517 57.2996 254.222 56.9867C253.928 56.6738 253.578 56.453 253.173 56.3242C252.768 56.1769 252.308 56.1033 251.793 56.1033C251.02 56.1033 250.357 56.2413 249.805 56.5174C249.272 56.7935 248.857 57.226 248.563 57.8149C248.269 58.3854 248.084 59.1124 248.011 59.9958Z" fill="white"/>
</svg>
