<svg width="189" height="33" viewBox="0 0 189 33" fill="none" xmlns="http://www.w3.org/2000/svg">
<path d="M44.8281 26.1109C41.6918 26.1109 39.193 25.2529 37.3318 23.5388C35.4688 21.8246 34.5391 19.4344 34.5391 16.3681C34.5391 13.3018 35.4963 10.9501 37.4108 9.21029C39.3253 7.46861 41.7984 6.59961 44.83 6.59961C46.6305 6.59961 48.0434 6.92112 49.065 7.56047C50.1215 8.2182 50.6506 9.14599 50.6506 10.3402C50.6506 11.1375 50.4118 11.8044 49.9359 12.3409C49.46 12.8774 48.8482 13.1456 48.1041 13.1456C47.7054 13.1456 47.2203 13.0629 46.6489 12.8994C46.0775 12.7359 45.5833 12.6532 45.168 12.6532C44.1465 12.6532 43.2719 12.9692 42.5443 13.6012C41.8167 14.2332 41.4529 15.1555 41.4529 16.3681C41.4529 17.5807 41.8075 18.4993 42.5186 19.1221C43.2278 19.7449 44.095 20.0572 45.1166 20.0572C45.5318 20.0572 46.0389 19.9745 46.636 19.811C47.2332 19.6457 47.7311 19.5648 48.1298 19.5648C48.8739 19.5648 49.4857 19.8331 49.9616 20.3696C50.4375 20.906 50.6763 21.5729 50.6763 22.3703C50.6763 23.6012 50.1215 24.5437 49.0135 25.2033C48.0085 25.8096 46.614 26.1127 44.83 26.1127L44.8281 26.1109Z" fill="white"/>
<path d="M55.1971 25.8479C54.3079 25.8479 53.6134 25.6035 53.1191 25.1148C52.623 24.6261 52.375 23.9445 52.375 23.07V12.5464C52.375 11.6719 52.623 10.9903 53.1191 10.5016C53.6152 10.0129 54.3079 9.76855 55.1971 9.76855C56.0864 9.76855 56.7534 10.0129 57.2439 10.5016C57.7327 10.9903 57.977 11.6719 57.977 12.5464V15.1277H61.8281V12.5464C61.8281 11.6719 62.0761 10.9903 62.5722 10.5016C63.0683 10.0129 63.7609 9.76855 64.6502 9.76855C65.5395 9.76855 66.2064 10.0129 66.697 10.5016C67.1857 10.9903 67.4301 11.6719 67.4301 12.5464V23.07C67.4301 23.9445 67.1857 24.628 66.697 25.1148C66.2083 25.6035 65.5266 25.8479 64.6502 25.8479C63.7738 25.8479 63.0664 25.6035 62.5722 25.1148C62.0761 24.6261 61.8281 23.9445 61.8281 23.07V20.4446H57.977V23.07C57.977 23.9445 57.7327 24.628 57.2439 25.1148C56.7552 25.6035 56.0735 25.8479 55.1971 25.8479Z" fill="white"/>
<path d="M79.0494 25.8486H72.7474C71.7993 25.8486 71.0699 25.5932 70.5591 25.0825C70.0484 24.5718 69.793 23.8424 69.793 22.8944V12.7199C69.793 11.7719 70.0484 11.0425 70.5591 10.5317C71.0699 10.021 71.7993 9.76562 72.7474 9.76562H79.0494C79.6907 9.76562 80.1978 9.95118 80.5708 10.3241C80.9437 10.6953 81.1293 11.2023 81.1293 11.8454C81.1293 12.4884 80.9437 13.012 80.5708 13.3776C80.1996 13.7432 79.6925 13.9251 79.0494 13.9251H75.395V15.6319H78.3053C78.9906 15.6319 79.5271 15.8284 79.913 16.2234C80.2988 16.6166 80.4936 17.1494 80.4936 17.82C80.4936 18.4906 80.3007 19.0417 79.913 19.4275C79.5253 19.8134 78.9906 20.0081 78.3053 20.0081H75.395V21.6928H79.0494C79.6907 21.6928 80.1978 21.8784 80.5708 22.2514C80.9437 22.6225 81.1293 23.1295 81.1293 23.7726C81.1293 24.4156 80.9437 24.9392 80.5708 25.3048C80.1996 25.6704 79.6925 25.8523 79.0494 25.8523V25.8486Z" fill="white"/>
<path d="M85.8534 25.848C84.9641 25.848 84.2696 25.6036 83.7754 25.1149C83.2793 24.6262 83.0312 23.9446 83.0312 23.0701V12.699C83.0312 11.751 83.2866 11.0179 83.7974 10.4998C84.3082 9.98175 85.0376 9.73005 85.9857 9.74475L89.4435 9.76679C91.8063 9.78149 93.5794 10.2518 94.7608 11.1778C95.9422 12.1037 96.5338 13.4504 96.5338 15.2141C96.5338 16.2062 96.3262 17.0238 95.9109 17.665C95.4957 18.3062 94.9519 18.7581 94.2812 19.0209V19.0649C95.04 19.2983 95.6372 19.7796 96.0763 20.509C96.5136 21.2384 96.7322 22.0045 96.7322 22.8055C96.7322 23.8564 96.4364 24.6409 95.8466 25.1572C95.255 25.6753 94.544 25.9343 93.7135 25.9343C91.8762 25.9343 90.9557 25.0451 90.9557 23.2648C90.9557 22.7394 90.8528 22.2838 90.6488 21.8979C90.4449 21.5121 90.0939 21.3174 89.5979 21.3174H88.6351V23.0682C88.6351 23.9428 88.3907 24.6262 87.902 25.1131C87.4133 25.6018 86.7316 25.8461 85.8552 25.8461L85.8534 25.848ZM88.6314 14.3819V17.3141H89.6383C90.353 17.3141 90.7095 16.8033 90.7095 15.7818C90.7095 14.8485 90.184 14.3819 89.1349 14.3819H88.6314Z" fill="white"/>
<path d="M101.478 25.848C100.589 25.848 99.8946 25.6036 99.4004 25.1149C98.9043 24.6262 98.6562 23.9446 98.6562 23.0701V12.699C98.6562 11.751 98.9116 11.0179 99.4224 10.4998C99.9332 9.98175 100.663 9.73005 101.611 9.74475L105.069 9.76679C107.431 9.78149 109.204 10.2518 110.386 11.1778C111.567 12.1037 112.159 13.4504 112.159 15.2141C112.159 16.2062 111.951 17.0238 111.536 17.665C111.121 18.3062 110.577 18.7581 109.906 19.0209V19.0649C110.665 19.2983 111.262 19.7796 111.701 20.509C112.139 21.2384 112.357 22.0045 112.357 22.8055C112.357 23.8564 112.061 24.6409 111.472 25.1572C110.88 25.6753 110.169 25.9343 109.338 25.9343C107.501 25.9343 106.581 25.0451 106.581 23.2648C106.581 22.7394 106.478 22.2838 106.274 21.8979C106.07 21.5121 105.719 21.3174 105.223 21.3174H104.26V23.0682C104.26 23.9428 104.016 24.6262 103.527 25.1131C103.038 25.6018 102.357 25.8461 101.48 25.8461L101.478 25.848ZM104.256 14.3819V17.3141H105.263C105.978 17.3141 106.334 16.8033 106.334 15.7818C106.334 14.8485 105.809 14.3819 104.76 14.3819H104.256Z" fill="white"/>
<path d="M119.946 25.8478C118.998 25.8478 118.261 25.5887 117.735 25.0706C117.21 24.5525 116.947 23.8268 116.947 22.8935V20.3122L113.599 14.1208C113.206 13.4061 113.008 12.7208 113.008 12.0631C113.008 11.4054 113.237 10.823 113.697 10.4004C114.156 9.97788 114.808 9.7666 115.655 9.7666C116.326 9.7666 116.848 9.92828 117.221 10.248C117.592 10.5695 117.998 11.2033 118.435 12.1513L119.901 15.4767H119.946L121.368 12.1513C121.805 11.2033 122.209 10.5695 122.582 10.248C122.953 9.92644 123.475 9.7666 124.148 9.7666C124.993 9.7666 125.647 9.97788 126.106 10.4004C126.565 10.823 126.795 11.3778 126.795 12.0631C126.795 12.7484 126.599 13.4061 126.204 14.1208L122.9 20.3122V22.8935C122.9 23.8268 122.641 24.5525 122.123 25.0706C121.605 25.5887 120.879 25.8478 119.946 25.8478Z" fill="white"/>
<path d="M138.108 25.8774H132.054C130.928 25.8774 130.063 25.5743 129.456 24.968C128.85 24.3617 128.547 23.4964 128.547 22.3702V10.0792C128.547 9.03932 128.841 8.23094 129.431 7.65038C130.019 7.06982 130.842 6.77954 131.9 6.77954C132.958 6.77954 133.748 7.06982 134.329 7.65038C134.91 8.23094 135.2 9.04116 135.2 10.0792V19.5629H138.11C139.097 19.5629 139.869 19.844 140.423 20.408C140.978 20.9702 141.256 21.7455 141.256 22.7339C141.256 23.7224 140.978 24.4921 140.423 25.047C139.869 25.6018 139.099 25.8792 138.11 25.8792L138.108 25.8774Z" fill="white"/>
<path d="M151.819 25.8486H145.517C144.569 25.8486 143.839 25.5932 143.329 25.0825C142.818 24.5718 142.562 23.8424 142.562 22.8944V12.7199C142.562 11.7719 142.818 11.0425 143.329 10.5317C143.839 10.021 144.569 9.76562 145.517 9.76562H151.819C152.46 9.76562 152.967 9.95118 153.34 10.3241C153.713 10.6953 153.899 11.2023 153.899 11.8454C153.899 12.4884 153.713 13.012 153.34 13.3776C152.969 13.7432 152.462 13.9251 151.819 13.9251H148.165V15.6319H151.075C151.76 15.6319 152.297 15.8284 152.683 16.2234C153.068 16.6166 153.263 17.1494 153.263 17.82C153.263 18.4906 153.07 19.0417 152.683 19.4275C152.295 19.8134 151.76 20.0081 151.075 20.0081H148.165V21.6928H151.819C152.46 21.6928 152.967 21.8784 153.34 22.2514C153.713 22.6225 153.899 23.1295 153.899 23.7726C153.899 24.4156 153.713 24.9392 153.34 25.3048C152.969 25.6704 152.462 25.8523 151.819 25.8523V25.8486Z" fill="white"/>
<path d="M158.627 25.8479C157.738 25.8479 157.043 25.6035 156.549 25.1148C156.053 24.6261 155.805 23.9445 155.805 23.07V12.5464C155.805 11.6719 156.053 10.9903 156.549 10.5016C157.045 10.0129 157.738 9.76855 158.627 9.76855C159.209 9.76855 159.689 9.92472 160.06 10.2389C160.431 10.553 160.946 11.1465 161.603 12.0228C161.691 12.1404 161.756 12.2268 161.8 12.2855L165.017 16.5075H165.061V12.5464C165.061 11.6719 165.309 10.9903 165.805 10.5016C166.301 10.0129 166.994 9.76855 167.883 9.76855C168.773 9.76855 169.44 10.0129 169.928 10.5016C170.417 10.9903 170.661 11.6719 170.661 12.5464V23.07C170.661 23.9445 170.413 24.628 169.917 25.1148C169.421 25.6035 168.728 25.8479 167.839 25.8479C167.139 25.8479 166.559 25.666 166.099 25.3004C165.64 24.9366 165.045 24.2789 164.315 23.3309L161.449 19.5683H161.405V23.0682C161.405 23.9427 161.161 24.6261 160.672 25.113C160.183 25.6017 159.501 25.846 158.625 25.846L158.627 25.8479Z" fill="white"/>
<path d="M179.522 25.8486H175.978C175.03 25.8486 174.3 25.5932 173.79 25.0825C173.279 24.5718 173.023 23.8424 173.023 22.8944V12.7199C173.023 11.7719 173.279 11.0425 173.79 10.5317C174.3 10.021 175.03 9.76562 175.978 9.76562H179.522C182.28 9.76562 184.391 10.484 185.857 11.9207C187.323 13.3574 188.056 15.3232 188.056 17.8181C188.056 20.3131 187.327 22.2569 185.868 23.6936C184.409 25.1303 182.295 25.8486 179.522 25.8486ZM178.625 14.581V21.0351H179.741C180.544 21.0351 181.163 20.765 181.6 20.2249C182.037 19.6848 182.256 18.8837 182.256 17.8181C182.256 16.7526 182.023 15.9295 181.556 15.3893C181.089 14.8492 180.485 14.5791 179.741 14.5791H178.625V14.581Z" fill="white"/>
<path d="M17.3275 19.1949L9.84221 5.06853V17.0637H6.71875V3.45178C6.71875 2.17859 7.54922 1.11851 8.78391 0.811697C10.0204 0.504882 11.2496 1.05421 11.8449 2.17859L20.089 17.7343L17.3293 19.1967L17.3275 19.1949Z" fill="#006937"/>
<path d="M22.3029 0C19.8207 0 17.5314 0.821235 15.6904 2.20833C14.7699 2.90097 14.7699 4.28623 15.6904 4.97886C17.5314 6.36596 19.8207 7.18719 22.3029 7.18719C24.7852 7.18719 27.0745 6.36596 28.9155 4.97886C29.836 4.28623 29.836 2.90097 28.9155 2.20833C27.0745 0.821235 24.7852 0 22.3029 0Z" fill="#006937"/>
<path d="M23.2193 5.0131C21.4646 3.25855 19.2635 2.22052 16.9815 1.89901C15.8405 1.73917 14.8612 2.71841 15.0211 3.85932C15.3426 6.14115 16.3807 8.3403 18.1354 10.0967C19.89 11.8512 22.0911 12.8892 24.3731 13.2108C25.5141 13.3706 26.4934 12.3914 26.3335 11.2504C26.012 8.96862 24.9739 6.76948 23.2193 5.0131Z" fill="#009247"/>
<path d="M8.28345 30.8571C11.9953 30.8571 15.0044 27.8482 15.0044 24.1366C15.0044 20.4249 11.9953 17.416 8.28345 17.416C4.57157 17.416 1.5625 20.4249 1.5625 24.1366C1.5625 27.8482 4.57157 30.8571 8.28345 30.8571Z" fill="#EC2027"/>
<path d="M8.28269 32.4159C3.71508 32.4159 0 28.7011 0 24.1337C0 19.5664 3.71508 15.8516 8.28269 15.8516C12.8503 15.8516 16.5654 19.5664 16.5654 24.1337C16.5654 28.7011 12.8503 32.4159 8.28269 32.4159ZM8.28269 18.9748C5.4385 18.9748 3.12346 21.2897 3.12346 24.1337C3.12346 26.9777 5.4385 29.2926 8.28269 29.2926C11.1269 29.2926 13.4419 26.9777 13.4419 24.1337C13.4419 21.2897 11.1269 18.9748 8.28269 18.9748Z" fill="#C1272D"/>
<path d="M21.7249 30.8747C25.4367 30.8747 28.4458 27.8658 28.4458 24.1541C28.4458 20.4425 25.4367 17.4336 21.7249 17.4336C18.013 17.4336 15.0039 20.4425 15.0039 24.1541C15.0039 27.8658 18.013 30.8747 21.7249 30.8747Z" fill="#E53D49"/>
<path d="M21.7241 32.4335C17.1565 32.4335 13.4414 28.7186 13.4414 24.1513C13.4414 19.584 17.1565 15.8691 21.7241 15.8691C26.2917 15.8691 30.0068 19.584 30.0068 24.1513C30.0068 28.7186 26.2917 32.4335 21.7241 32.4335ZM21.7241 18.9924C18.8799 18.9924 16.5649 21.3073 16.5649 24.1513C16.5649 26.9953 18.8799 29.3102 21.7241 29.3102C24.5683 29.3102 26.8833 26.9953 26.8833 24.1513C26.8833 21.3073 24.5683 18.9924 21.7241 18.9924Z" fill="#C1272D"/>
<g opacity="0.8">
<path d="M18.7115 24.2893C18.3054 24.2893 17.9766 23.9604 17.9766 23.5544C17.9766 21.6309 19.542 20.0674 21.4638 20.0674C21.8699 20.0674 22.1987 20.3962 22.1987 20.8023C22.1987 21.2083 21.8699 21.5372 21.4638 21.5372C20.3504 21.5372 19.4464 22.4429 19.4464 23.5544C19.4464 23.9604 19.1175 24.2893 18.7115 24.2893Z" fill="#FBDCE9"/>
</g>
<g opacity="0.8">
<path d="M4.93806 24.2893C4.53201 24.2893 4.20312 23.9604 4.20312 23.5544C4.20312 21.6309 5.76669 20.0674 7.69038 20.0674C8.09643 20.0674 8.42531 20.3962 8.42531 20.8023C8.42531 21.2083 8.09643 21.5372 7.69038 21.5372C6.57696 21.5372 5.67299 22.4429 5.67299 23.5544C5.67299 23.9604 5.34411 24.2893 4.93806 24.2893Z" fill="#FBDCE9"/>
</g>
</svg>
