<svg width="456" height="261" viewBox="0 0 456 261" fill="none" xmlns="http://www.w3.org/2000/svg">
<g clip-path="url(#clip0_624_2675)">
<path d="M98.8005 231.677C111.898 231.677 122.515 221.101 122.515 208.054C122.515 195.007 111.898 184.431 98.8005 184.431C85.7033 184.431 75.0859 195.007 75.0859 208.054C75.0859 221.101 85.7033 231.677 98.8005 231.677Z" fill="#61CBED"/>
<path d="M102.66 228.22C115.757 228.22 126.374 217.644 126.374 204.597C126.374 191.55 115.757 180.974 102.66 180.974C89.5627 180.974 78.9453 191.55 78.9453 204.597C78.9453 217.644 89.5627 228.22 102.66 228.22Z" fill="#B2F380"/>
<path d="M415.171 178.458H121.758V179.256H415.171V178.458Z" fill="#1B2336"/>
<path d="M273.718 7.43804H169.575V5.2998H122.352V7.43804H17.7789C16.8538 7.43804 15.9378 7.61955 15.0831 7.9722C14.2284 8.32486 13.4518 8.84176 12.7977 9.49339C12.1435 10.145 11.6246 10.9186 11.2706 11.77C10.9166 12.6214 10.7344 13.5339 10.7344 14.4555V156.512C10.7344 158.373 11.4766 160.158 12.7977 161.474C14.1188 162.79 15.9106 163.529 17.7789 163.529H273.718C275.586 163.529 277.378 162.79 278.699 161.474C280.02 160.158 280.763 158.373 280.763 156.512V14.4555C280.763 13.5339 280.58 12.6214 280.226 11.77C279.872 10.9186 279.353 10.145 278.699 9.49339C278.045 8.84176 277.269 8.32486 276.414 7.9722C275.559 7.61955 274.643 7.43804 273.718 7.43804Z" fill="#1B2336"/>
<path d="M271.315 19.8389H20.1758V160.962H271.315V19.8389Z" fill="#B2F380"/>
<path d="M145.533 15.9902C146.955 15.9902 148.109 14.8414 148.109 13.4243C148.109 12.0072 146.955 10.8584 145.533 10.8584C144.11 10.8584 142.957 12.0072 142.957 13.4243C142.957 14.8414 144.11 15.9902 145.533 15.9902Z" fill="#9CE89E" fill-opacity="0.65"/>
<path opacity="0.1" d="M199.318 161.123H20V20L199.318 161.123Z" fill="black"/>
<path d="M59.4723 150.402C72.8046 150.402 83.6126 139.636 83.6126 126.355C83.6126 113.074 72.8046 102.308 59.4723 102.308C46.14 102.308 35.332 113.074 35.332 126.355C35.332 139.636 46.14 150.402 59.4723 150.402Z" fill="#61CBED"/>
<path d="M227.588 95.9482H204.129V100.831H227.588V95.9482Z" fill="#1B2336"/>
<path d="M255.951 57.9307H175.77V60.0234H255.951V57.9307Z" fill="#1B2336"/>
<path d="M255.951 64.5576H175.77V66.6504H255.951V64.5576Z" fill="#1B2336"/>
<path d="M255.951 71.1846H175.77V73.2773H255.951V71.1846Z" fill="#1B2336"/>
<path d="M255.951 77.8115H175.77V79.9043H255.951V77.8115Z" fill="#1B2336"/>
<path d="M255.951 84.4385H175.77V86.5312H255.951V84.4385Z" fill="#1B2336"/>
<path d="M255.948 22.7021H246.145V32.4683H255.948V22.7021Z" fill="#61CBED"/>
<path d="M260.502 37.0024H248.598V25.1436H260.502V37.0024ZM249.115 36.4868H259.985V25.6592H249.115V36.4868Z" fill="#1B2336"/>
<path d="M287.812 158.397H263.303V156.638C263.303 156.592 263.294 156.546 263.276 156.504C263.258 156.462 263.233 156.423 263.2 156.391C263.168 156.359 263.129 156.333 263.086 156.315C263.044 156.298 262.998 156.289 262.952 156.289H254.549C254.503 156.289 254.458 156.298 254.415 156.315C254.373 156.333 254.334 156.359 254.302 156.391C254.269 156.423 254.243 156.462 254.226 156.504C254.208 156.546 254.199 156.592 254.199 156.638V158.397H248.947V156.638C248.947 156.592 248.938 156.546 248.92 156.504C248.903 156.462 248.877 156.423 248.844 156.391C248.812 156.359 248.773 156.333 248.731 156.315C248.688 156.298 248.643 156.289 248.597 156.289H240.194C240.148 156.289 240.102 156.298 240.06 156.315C240.017 156.333 239.979 156.359 239.946 156.391C239.913 156.423 239.888 156.462 239.87 156.504C239.853 156.546 239.843 156.592 239.843 156.638V158.397H234.591V156.638C234.591 156.592 234.582 156.546 234.565 156.504C234.547 156.462 234.521 156.423 234.489 156.391C234.456 156.359 234.418 156.333 234.375 156.315C234.333 156.298 234.287 156.289 234.241 156.289H225.838C225.792 156.289 225.747 156.298 225.704 156.315C225.662 156.333 225.623 156.359 225.59 156.391C225.558 156.423 225.532 156.462 225.515 156.504C225.497 156.546 225.488 156.592 225.488 156.638V158.397H220.236V156.638C220.236 156.592 220.227 156.546 220.209 156.504C220.192 156.462 220.166 156.423 220.133 156.391C220.101 156.359 220.062 156.333 220.02 156.315C219.977 156.298 219.932 156.289 219.886 156.289H211.482C211.436 156.289 211.391 156.298 211.348 156.315C211.306 156.333 211.267 156.359 211.235 156.391C211.202 156.423 211.177 156.462 211.159 156.504C211.141 156.546 211.132 156.592 211.132 156.638V158.397H205.88V156.638C205.88 156.592 205.871 156.546 205.854 156.504C205.836 156.462 205.81 156.423 205.778 156.391C205.745 156.359 205.707 156.333 205.664 156.315C205.622 156.298 205.576 156.289 205.53 156.289H197.127C197.081 156.289 197.035 156.298 196.993 156.315C196.95 156.333 196.912 156.359 196.879 156.391C196.847 156.423 196.821 156.462 196.803 156.504C196.786 156.546 196.777 156.592 196.777 156.638V158.397H191.525V156.638C191.525 156.592 191.516 156.546 191.498 156.504C191.48 156.462 191.455 156.423 191.422 156.391C191.39 156.359 191.351 156.333 191.308 156.315C191.266 156.298 191.22 156.289 191.174 156.289H182.771C182.725 156.289 182.68 156.298 182.637 156.315C182.595 156.333 182.556 156.359 182.524 156.391C182.491 156.423 182.465 156.462 182.448 156.504C182.43 156.546 182.421 156.592 182.421 156.638V158.397H177.169V156.638C177.169 156.592 177.16 156.546 177.142 156.504C177.125 156.462 177.099 156.423 177.066 156.391C177.034 156.359 176.995 156.333 176.953 156.315C176.91 156.298 176.865 156.289 176.819 156.289H110.993C110.947 156.289 110.902 156.298 110.859 156.315C110.817 156.333 110.778 156.359 110.746 156.391C110.713 156.423 110.687 156.462 110.67 156.504C110.652 156.546 110.643 156.592 110.643 156.638V158.397H105.391V156.638C105.391 156.592 105.382 156.546 105.364 156.504C105.347 156.462 105.321 156.423 105.289 156.391C105.256 156.359 105.217 156.333 105.175 156.315C105.132 156.298 105.087 156.289 105.041 156.289H96.6377C96.5917 156.289 96.5461 156.298 96.5037 156.315C96.4612 156.333 96.4226 156.359 96.3901 156.391C96.3576 156.423 96.3318 156.462 96.3142 156.504C96.2966 156.546 96.2875 156.592 96.2875 156.638V158.397H91.0355V156.638C91.0355 156.592 91.0264 156.546 91.0088 156.504C90.9912 156.462 90.9654 156.423 90.9329 156.391C90.9004 156.359 90.8618 156.333 90.8193 156.315C90.7768 156.298 90.7313 156.289 90.6853 156.289H82.2821C82.2361 156.289 82.1906 156.298 82.1481 156.315C82.1056 156.333 82.067 156.359 82.0345 156.391C82.002 156.423 81.9762 156.462 81.9586 156.504C81.941 156.546 81.9319 156.592 81.9319 156.638V158.397H76.6799V156.638C76.6799 156.592 76.6708 156.546 76.6532 156.504C76.6356 156.462 76.6098 156.423 76.5773 156.391C76.5448 156.359 76.5062 156.333 76.4637 156.315C76.4212 156.298 76.3757 156.289 76.3297 156.289H67.9265C67.8805 156.289 67.835 156.298 67.7925 156.315C67.75 156.333 67.7114 156.359 67.6789 156.391C67.6464 156.423 67.6206 156.462 67.603 156.504C67.5854 156.546 67.5763 156.592 67.5763 156.638V158.397H62.3243V156.638C62.3243 156.592 62.3152 156.546 62.2976 156.504C62.2801 156.462 62.2543 156.423 62.2218 156.391C62.1892 156.359 62.1506 156.333 62.1082 156.315C62.0657 156.298 62.0201 156.289 61.9742 156.289H53.5709C53.5249 156.289 53.4794 156.298 53.4369 156.315C53.3944 156.333 53.3558 156.359 53.3233 156.391C53.2908 156.423 53.265 156.462 53.2474 156.504C53.2298 156.546 53.2207 156.592 53.2207 156.638V158.397H47.9687V156.638C47.9687 156.592 47.9596 156.546 47.942 156.504C47.9244 156.462 47.8987 156.423 47.8661 156.391C47.8336 156.359 47.795 156.333 47.7525 156.315C47.7101 156.298 47.6645 156.289 47.6186 156.289H39.2153C39.1693 156.289 39.1238 156.298 39.0813 156.315C39.0388 156.333 39.0002 156.359 38.9677 156.391C38.9352 156.423 38.9094 156.462 38.8918 156.504C38.8742 156.546 38.8651 156.592 38.8651 156.638V158.397H33.6131V156.638C33.6131 156.592 33.604 156.546 33.5864 156.504C33.5689 156.462 33.5431 156.423 33.5105 156.391C33.478 156.359 33.4394 156.333 33.397 156.315C33.3545 156.298 33.3089 156.289 33.263 156.289H24.8597C24.8137 156.289 24.7682 156.298 24.7257 156.315C24.6832 156.333 24.6446 156.359 24.6121 156.391C24.5796 156.423 24.5538 156.462 24.5362 156.504C24.5186 156.546 24.5096 156.592 24.5096 156.638V158.397H8.40328C6.17459 158.397 4.03718 159.279 2.46126 160.849C0.885346 162.418 2.12327e-06 164.548 0 166.768V170.553C6.36982e-06 172.773 0.885352 174.902 2.46127 176.472C4.03719 178.042 6.17459 178.924 8.40328 178.924H287.812C290.041 178.924 292.178 178.042 293.754 176.472C295.33 174.902 296.215 172.773 296.215 170.553V166.768C296.215 164.548 295.33 162.418 293.754 160.849C292.178 159.279 290.041 158.397 287.812 158.397Z" fill="#1B2336"/>
<path d="M65.3167 141.375C59.2997 141.375 53.4179 139.598 48.415 136.268C43.4122 132.938 39.5129 128.205 37.2103 122.667C34.9077 117.129 34.3053 111.036 35.4791 105.158C36.6529 99.2789 39.5504 93.8791 43.805 89.6408C48.0596 85.4026 53.4803 82.5163 59.3816 81.347C65.2829 80.1776 71.3998 80.7778 76.9587 83.0715C82.5176 85.3652 87.2689 89.2495 90.6117 94.2332C93.9546 99.2168 95.7388 105.076 95.7388 111.07C95.7297 119.104 92.5216 126.807 86.8183 132.489C81.115 138.17 73.3823 141.366 65.3167 141.375ZM65.3167 81.5622C59.4581 81.5622 53.7311 83.2928 48.8598 86.5351C43.9886 89.7774 40.1919 94.3859 37.9499 99.7777C35.7079 105.17 35.1213 111.103 36.2643 116.826C37.4073 122.55 40.2284 127.808 44.3711 131.935C48.5137 136.062 53.7918 138.872 59.5378 140.01C65.2838 141.149 71.2397 140.565 76.6523 138.331C82.065 136.098 86.6912 132.316 89.9461 127.463C93.2009 122.611 94.9382 116.906 94.9382 111.07C94.9293 103.247 91.8056 95.7463 86.2524 90.2145C80.6993 84.6827 73.1701 81.571 65.3167 81.5622Z" fill="#1B2336"/>
<path d="M336.715 12.9766H234.641V13.7741H336.715V12.9766Z" fill="#1B2336"/>
<path d="M455.999 223.517H162.586V224.315H455.999V223.517Z" fill="#1B2336"/>
<path d="M179.199 260.202H77.125V261H179.199V260.202Z" fill="#1B2336"/>
<path d="M199.747 219.313H188.539V230.478H199.747V219.313Z" fill="#9CE89E" fill-opacity="0.65"/>
<path d="M206.551 224.099H192.941V210.541H206.551V224.099ZM193.533 223.509H205.96V211.13H193.533V223.509Z" fill="#1B2336"/>
<path d="M329.841 8.77258H318.633V19.9376H329.841V8.77258Z" fill="#B2F380"/>
<path d="M336.645 13.5575H323.035V0H336.645V13.5575ZM323.627 12.9681H336.053V0.58946H323.627V12.9681Z" fill="#1B2336"/>
<path d="M442.724 219.313H431.516V230.478H442.724V219.313Z" fill="#85B948" fill-opacity="0.65"/>
<path d="M449.528 224.099H435.918V210.541H449.528V224.099ZM436.51 223.509H448.936V211.13H436.51V223.509Z" fill="#1B2336"/>
<path d="M423.176 92.4934H422.224V66.5101C422.224 64.5352 421.834 62.5797 421.075 60.7551C420.316 58.9306 419.204 57.2728 417.802 55.8763C416.401 54.4799 414.736 53.3721 412.905 52.6164C411.073 51.8606 409.11 51.4717 407.128 51.4717H351.866C349.884 51.4717 347.92 51.8606 346.089 52.6164C344.257 53.3721 342.593 54.4799 341.191 55.8763C339.789 57.2728 338.677 58.9306 337.919 60.7551C337.16 62.5797 336.77 64.5352 336.77 66.5101V209.056C336.77 211.031 337.16 212.987 337.919 214.811C338.677 216.636 339.789 218.294 341.191 219.69C342.593 221.087 344.257 222.194 346.089 222.95C347.92 223.706 349.884 224.095 351.866 224.095H407.128C409.11 224.095 411.073 223.706 412.905 222.95C414.736 222.194 416.401 221.087 417.803 219.69C419.204 218.294 420.316 216.636 421.075 214.811C421.834 212.987 422.224 211.031 422.224 209.056V110.989H423.176V92.4934Z" fill="#1B2336"/>
<path d="M419.01 67.3939V209.732C419.011 212.711 417.823 215.568 415.71 217.674C413.596 219.781 410.728 220.964 407.738 220.965H352.21C349.22 220.964 346.352 219.781 344.238 217.674C342.124 215.568 340.937 212.711 340.938 209.732V67.3939C340.938 64.4159 342.126 61.56 344.239 59.4542C346.353 57.3485 349.22 56.1654 352.21 56.165H358.947C358.615 56.9751 358.489 57.854 358.578 58.7243C358.668 59.5946 358.971 60.4295 359.461 61.1555C359.951 61.8816 360.613 62.4764 361.388 62.8877C362.163 63.299 363.028 63.5141 363.906 63.514H395.565C396.443 63.5141 397.308 63.299 398.083 62.8877C398.858 62.4764 399.52 61.8816 400.01 61.1555C400.5 60.4295 400.803 59.5946 400.893 58.7243C400.983 57.854 400.856 56.9751 400.525 56.165H407.738C410.728 56.1654 413.594 57.3485 415.708 59.4542C417.822 61.56 419.01 64.4159 419.01 67.3939Z" fill="#B2F380"/>
<path d="M388.245 150.018H371.703V154.901H388.245V150.018Z" fill="#1B2336"/>
<path d="M408.24 111.999H351.703V114.092H408.24V111.999Z" fill="#1B2336"/>
<path d="M408.24 118.626H351.703V120.719H408.24V118.626Z" fill="#1B2336"/>
<path d="M408.24 125.253H351.703V127.346H408.24V125.253Z" fill="#1B2336"/>
<path d="M408.24 131.88H351.703V133.973H408.24V131.88Z" fill="#1B2336"/>
<path d="M408.24 138.507H351.703V140.6H408.24V138.507Z" fill="#1B2336"/>
<path d="M381.948 84.208H372.145V93.9741H381.948V84.208Z" fill="#61CBED"/>
<path d="M375.898 86.6504V98.5093H387.803V86.6504H375.898ZM387.287 97.9949H376.415V87.1648H387.287V97.9949Z" fill="#1B2336"/>
<path opacity="0.1" d="M419.01 194.532V209.733C419.011 212.711 417.823 215.568 415.71 217.675C413.596 219.781 410.728 220.965 407.738 220.966H352.21C349.22 220.965 346.352 219.781 344.238 217.675C342.124 215.568 340.937 212.711 340.938 209.733V133.089L387.72 169.906L388.52 170.536L397.222 177.382L398.035 178.024L419.01 194.532Z" fill="black"/>
<path d="M375.169 216.353C384.867 216.353 392.729 208.521 392.729 198.861C392.729 189.2 384.867 181.368 375.169 181.368C365.471 181.368 357.609 189.2 357.609 198.861C357.609 208.521 365.471 216.353 375.169 216.353Z" fill="#61CBED"/>
<path d="M128.161 261C121.273 261 114.54 258.965 108.813 255.153C103.086 251.341 98.6227 245.923 95.9869 239.584C93.351 233.245 92.6614 226.27 94.0051 219.541C95.3489 212.811 98.6656 206.63 103.536 201.778C108.406 196.926 114.612 193.622 121.367 192.284C128.123 190.945 135.125 191.632 141.488 194.258C147.852 196.884 153.291 201.33 157.117 207.035C160.944 212.74 162.987 219.447 162.987 226.309C162.976 235.506 159.304 244.324 152.775 250.828C146.246 257.331 137.394 260.99 128.161 261ZM128.161 192.415C121.432 192.415 114.853 194.403 109.258 198.127C103.663 201.851 99.3018 207.145 96.7265 213.338C94.1513 219.531 93.4775 226.346 94.7903 232.921C96.1032 239.496 99.3437 245.535 104.102 250.275C108.861 255.015 114.923 258.243 121.523 259.551C128.124 260.859 134.965 260.188 141.182 257.622C147.399 255.057 152.713 250.713 156.452 245.139C160.191 239.565 162.186 233.012 162.186 226.309C162.176 217.322 158.588 208.707 152.209 202.353C145.83 195.999 137.182 192.425 128.161 192.415Z" fill="#1B2336"/>
<path d="M380.344 212.352C375.99 212.352 371.733 211.066 368.113 208.656C364.492 206.246 361.67 202.821 360.004 198.813C358.338 194.806 357.902 190.396 358.751 186.142C359.601 181.888 361.697 177.98 364.776 174.913C367.855 171.846 371.778 169.757 376.049 168.911C380.32 168.064 384.746 168.499 388.769 170.159C392.792 171.819 396.231 174.63 398.65 178.236C401.069 181.843 402.36 186.083 402.36 190.421C402.354 196.235 400.032 201.81 395.905 205.921C391.777 210.033 386.181 212.345 380.344 212.352ZM380.344 169.287C376.148 169.287 372.046 170.526 368.557 172.848C365.069 175.171 362.349 178.471 360.744 182.333C359.138 186.195 358.718 190.444 359.536 194.544C360.355 198.643 362.376 202.409 365.343 205.364C368.31 208.32 372.09 210.333 376.205 211.148C380.321 211.964 384.586 211.545 388.463 209.946C392.34 208.346 395.653 205.637 397.984 202.162C400.315 198.686 401.56 194.6 401.56 190.421C401.553 184.817 399.316 179.446 395.339 175.484C391.361 171.522 385.969 169.293 380.344 169.287Z" fill="#1B2336"/>
</g>
<defs>
<clipPath id="clip0_624_2675">
<rect width="456" height="261" fill="white"/>
</clipPath>
</defs>
</svg>
