<svg width="43" height="29" viewBox="0 0 43 29" fill="none" xmlns="http://www.w3.org/2000/svg">
<path d="M36.4252 2.42871C33.6416 1.29411 30.6653 0.46949 27.5539 0C27.1716 0.60191 26.7252 1.41148 26.4175 2.05552C23.1098 1.62215 19.8325 1.62215 16.5857 2.05552C16.278 1.41148 15.8213 0.60191 15.4359 0C12.3209 0.46949 9.3413 1.29712 6.55785 2.43473C0.94357 9.82618 -0.57837 17.0341 0.182601 24.1396C3.90628 26.5623 7.51497 28.0339 11.0628 28.997C11.9387 27.9467 12.72 26.8302 13.3931 25.6534C12.1112 25.229 10.8835 24.7055 9.72347 24.0974C10.0312 23.8989 10.3323 23.6912 10.6231 23.4775C17.6985 26.3606 25.3859 26.3606 32.3768 23.4775C32.6709 23.6912 32.972 23.8989 33.2764 24.0974C32.1129 24.7084 30.8819 25.232 29.6 25.6564C30.2731 26.8302 31.0509 27.9497 31.9303 29C35.4814 28.037 39.0935 26.5653 42.8172 24.1396C43.7102 15.9025 41.2919 8.7608 36.4252 2.42871ZM14.3569 19.7698C12.233 19.7698 10.4912 18.0422 10.4912 15.9386C10.4912 13.8349 12.1958 12.1045 14.3569 12.1045C16.5181 12.1045 18.2598 13.8319 18.2226 15.9386C18.2261 18.0422 16.5181 19.7698 14.3569 19.7698ZM28.643 19.7698C26.519 19.7698 24.7771 18.0422 24.7771 15.9386C24.7771 13.8349 26.4818 12.1045 28.643 12.1045C30.804 12.1045 32.5459 13.8319 32.5087 15.9386C32.5087 18.0422 30.804 19.7698 28.643 19.7698Z" fill="white"/>
</svg>
