<svg width="38" height="39" viewBox="0 0 38 39" fill="none" xmlns="http://www.w3.org/2000/svg">
<path d="M19 0C8.50725 0 0 8.86784 0 19.8053C0 29.0858 6.13067 36.8511 14.3957 39C14.307 38.7326 14.25 38.4223 14.25 38.0378V34.6527C13.4789 34.6527 12.1869 34.6527 11.8623 34.6527C10.5624 34.6527 9.40658 34.0701 8.84608 32.9874C8.22383 31.7843 8.11617 29.944 6.574 28.8184C6.11642 28.4438 6.46475 28.0163 6.992 28.0741C7.96575 28.3612 8.77325 29.0577 9.53325 30.0909C10.2901 31.1257 10.6463 31.3601 12.0602 31.3601C12.7458 31.3601 13.7718 31.3188 14.7377 31.1604C15.257 29.7856 16.1548 28.5197 17.252 27.9222C10.925 27.2439 7.90558 23.9628 7.90558 19.5083C7.90558 17.5904 8.68933 15.7353 10.0209 14.1724C9.58392 12.6209 9.0345 9.45705 10.1888 8.25222C13.0356 8.25222 14.7567 10.1766 15.1699 10.6965C16.5886 10.1898 18.1466 9.90267 19.7838 9.90267C21.4241 9.90267 22.9884 10.1898 24.4102 10.6998C24.8188 10.1832 26.5414 8.25222 29.3946 8.25222C30.5536 9.4587 29.9978 12.6358 29.5561 14.1839C30.8798 15.7436 31.6588 17.5937 31.6588 19.5083C31.6588 23.9595 28.6441 27.2389 22.3266 27.9206C24.0651 28.8663 25.3333 31.5235 25.3333 33.5255V38.0378C25.3333 38.2094 25.2969 38.3332 25.2779 38.4801C32.6816 35.775 38 28.4471 38 19.8053C38 8.86784 29.4928 0 19 0Z" fill="white"/>
</svg>
