<svg width="40" height="35" viewBox="0 0 40 35" fill="none" xmlns="http://www.w3.org/2000/svg">
<path d="M36.6023 0.00318359C36.0243 0.0276018 35.4939 0.18905 35.0279 0.367418C34.5974 0.532069 33.0515 1.16309 30.5899 2.16582C28.1282 3.16855 24.8663 4.49804 21.3895 5.91819C14.4357 8.75849 6.62151 11.9535 2.61752 13.5899C2.48002 13.6455 1.9216 13.8115 1.30485 14.269C0.686675 14.7276 0 15.7227 0 16.8111C0 17.689 0.451286 18.5832 0.996221 19.0951C1.54116 19.6071 2.09344 19.8464 2.55501 20.0247V20.0209C4.11527 20.6246 8.7747 22.4353 9.88408 22.8665C10.2776 24.0117 11.9669 28.9144 12.3688 30.1473H12.3649C12.6489 31.02 12.9258 31.5887 13.3103 32.0634C13.5025 32.3007 13.732 32.5158 14.0135 32.6856C14.1215 32.7508 14.2411 32.8013 14.3612 32.8487C14.378 32.8556 14.3952 32.8574 14.412 32.8639L14.3651 32.8525C14.3999 32.8661 14.4312 32.8862 14.4667 32.8981C14.5245 32.9174 14.5646 32.9168 14.6425 32.9322C14.9165 33.0141 15.1901 33.0688 15.4434 33.0688C16.5307 33.0688 17.1975 32.4959 17.1975 32.4959L17.2405 32.4655L21.9364 28.6069L27.6871 33.7745C27.7922 33.9185 28.6151 35 30.5195 35C31.6559 35 32.5544 34.4537 33.1292 33.8807C33.7041 33.3078 34.0622 32.7215 34.2231 31.9268L34.227 31.923C34.3554 31.2816 39.8606 4.4347 39.8606 4.4347L39.8489 4.48023C40.0202 3.73749 40.0708 3.01921 39.8684 2.28723C39.666 1.55526 39.1197 0.840922 38.462 0.466064C37.8042 0.0912067 37.1804 -0.0212354 36.6023 0.00318359ZM35.8132 4.25637C35.5956 5.31708 30.6641 29.3779 30.3594 30.8872L22.0536 23.4242L16.4396 28.034L17.9945 22.1304C17.9945 22.1304 28.721 11.5858 29.367 10.9719C29.8871 10.4805 29.996 10.3082 29.996 10.1372C29.996 9.90995 29.8756 9.74644 29.5975 9.74644C29.3475 9.74644 29.0079 9.97913 28.8279 10.0879C26.5403 11.473 16.7969 16.8654 12.0054 19.5125C11.7171 19.4002 7.38793 17.7119 5.05534 16.8073C9.2044 15.1114 16.3166 12.2054 22.9404 9.49983C26.4167 8.07992 29.6776 6.74923 32.1369 5.74746C34.2129 4.90184 35.2958 4.46399 35.8132 4.25637ZM30.3008 31.1642H30.3047C30.3046 31.1646 30.301 31.175 30.3008 31.1755C30.3033 31.163 30.2988 31.174 30.3008 31.1642Z" fill="white"/>
</svg>
