<svg width="41" height="33" viewBox="0 0 41 33" fill="none" xmlns="http://www.w3.org/2000/svg">
<path d="M41 0C39.401 0.954878 36.1927 2.25623 34.3068 2.63159C34.2514 2.64602 34.2063 2.66458 34.153 2.67902C32.4863 1.025 30.2027 0 27.675 0C22.5807 0 18.45 4.15568 18.45 9.28067C18.45 9.55084 18.4275 10.0479 18.45 10.3119C11.5764 10.3119 6.34475 6.69033 2.59325 2.06237C2.1853 3.09356 2.00695 4.72283 2.00695 6.25311C2.00695 9.14249 4.2517 11.9803 7.74695 13.7395C7.10325 13.9066 6.39395 14.0262 5.65595 14.0262C4.4649 14.0262 3.20415 13.7106 2.05 12.7537C2.05 12.7888 2.05 12.8218 2.05 12.8589C2.05 16.897 6.3099 19.6461 10.0983 20.4113C9.32955 20.8671 7.77975 20.9124 7.0233 20.9124C6.4903 20.9124 4.6043 20.667 4.1 20.5722C5.1537 23.8823 8.9544 25.7425 12.5767 25.8085C9.74365 28.0441 7.7777 28.8732 1.9762 28.8732H0C3.6654 31.2367 8.33325 33 13.0113 33C28.2428 33 36.9 21.3208 36.9 10.3119C36.9 10.1345 36.8959 9.76327 36.8898 9.38998C36.8898 9.35285 36.9 9.31779 36.9 9.28067C36.9 9.22499 36.8836 9.17136 36.8836 9.11568C36.8774 8.8352 36.8713 8.57328 36.8652 8.43716C38.4846 7.26161 39.8889 5.79526 41 4.12474C39.5137 4.78883 37.9188 5.2343 36.244 5.43641C37.9537 4.40523 40.3829 1.94688 41 0Z" fill="white"/>
</svg>
