<svg width="207" height="169" viewBox="0 0 207 169" fill="none" xmlns="http://www.w3.org/2000/svg">
<path d="M84.332 80C84.332 82.7615 86.5706 85 89.332 85C92.0935 85 94.332 82.7615 94.332 80H84.332ZM94.332 42.6667C94.332 39.9053 92.0935 37.6667 89.332 37.6667C86.5706 37.6667 84.332 39.9053 84.332 42.6667H94.332ZM121.665 117.333C121.665 120.095 123.904 122.333 126.665 122.333C129.427 122.333 131.665 120.095 131.665 117.333H121.665ZM131.665 42.6667C131.665 39.9053 129.427 37.6667 126.665 37.6667C123.904 37.6667 121.665 39.9053 121.665 42.6667H131.665ZM158.999 117.333C158.999 120.095 161.237 122.333 163.999 122.333C166.76 122.333 168.999 120.095 168.999 117.333H158.999ZM168.999 61.3334C168.999 58.572 166.76 56.3334 163.999 56.3334C161.237 56.3334 158.999 58.572 158.999 61.3334H168.999ZM9.66536 61.3334C9.66536 64.0948 11.9039 66.3334 14.6654 66.3334C17.4268 66.3334 19.6654 64.0948 19.6654 61.3334H9.66536ZM107.999 149.667C105.237 149.667 102.999 151.905 102.999 154.667C102.999 157.428 105.237 159.667 107.999 159.667V149.667ZM56.332 108C56.332 115.548 50.2133 121.667 42.6654 121.667V131.667C55.7361 131.667 66.332 121.071 66.332 108H56.332ZM42.6654 121.667C35.1175 121.667 28.9987 115.548 28.9987 108H18.9987C18.9987 121.071 29.5946 131.667 42.6654 131.667V121.667ZM28.9987 108C28.9987 100.452 35.1175 94.3334 42.6654 94.3334V84.3334C29.5946 84.3334 18.9987 94.9293 18.9987 108H28.9987ZM42.6654 94.3334C50.2133 94.3334 56.332 100.452 56.332 108H66.332C66.332 94.9293 55.7361 84.3334 42.6654 84.3334V94.3334ZM79.9506 159H5.38008V169H79.9506V159ZM74.9987 163.952C74.9987 161.217 77.2159 159 79.9506 159V169C82.7385 169 84.9987 166.74 84.9987 163.952H74.9987ZM42.6654 131.667C60.5044 131.667 74.9987 146.13 74.9987 163.952H84.9987C84.9987 140.59 66.0105 121.667 42.6654 121.667V131.667ZM10.332 163.952C10.332 146.13 24.8263 131.667 42.6654 131.667V121.667C19.3202 121.667 0.332031 140.59 0.332031 163.952H10.332ZM0.332031 163.952C0.332031 166.74 2.5921 169 5.38008 169V159C8.11498 159 10.332 161.217 10.332 163.952H0.332031ZM94.332 80V42.6667H84.332V80H94.332ZM131.665 117.333L131.665 42.6667H121.665L121.665 117.333H131.665ZM168.999 117.333V61.3334H158.999V117.333H168.999ZM33.332 10.3334H182.665V0.333374H33.332V10.3334ZM196.332 24V136H206.332V24H196.332ZM196.332 136C196.332 143.548 190.213 149.667 182.665 149.667V159.667C195.736 159.667 206.332 149.071 206.332 136H196.332ZM182.665 10.3334C190.213 10.3334 196.332 16.4522 196.332 24H206.332C206.332 10.9293 195.736 0.333374 182.665 0.333374V10.3334ZM33.332 0.333374C20.2613 0.333374 9.66536 10.9293 9.66536 24H19.6654C19.6654 16.4521 25.7841 10.3334 33.332 10.3334V0.333374ZM19.6654 61.3334V24H9.66536V61.3334H19.6654ZM182.665 149.667H107.999V159.667H182.665V149.667Z" fill="url(#paint0_linear_627_389)"/>
<defs>
<linearGradient id="paint0_linear_627_389" x1="-11" y1="199" x2="177" y2="39.0004" gradientUnits="userSpaceOnUse">
<stop stop-color="#B2F37F"/>
<stop offset="1" stop-color="#61CBED"/>
</linearGradient>
</defs>
</svg>
