<svg width="154" height="172" viewBox="0 0 154 172" fill="none" xmlns="http://www.w3.org/2000/svg">
<path d="M41 108C38.2386 108 36 110.239 36 113C36 115.761 38.2386 118 41 118V108ZM59 118C61.7614 118 64 115.761 64 113C64 110.239 61.7614 108 59 108V118ZM41 72C38.2386 72 36 74.2386 36 77C36 79.7614 38.2386 82 41 82V72ZM95 82C97.7614 82 100 79.7614 100 77C100 74.2386 97.7614 72 95 72V82ZM41 36C38.2386 36 36 38.2386 36 41C36 43.7614 38.2386 46 41 46V36ZM95 46C97.7614 46 100 43.7614 100 41C100 38.2386 97.7614 36 95 36V46ZM126 90.5C126 93.2614 128.239 95.5 131 95.5C133.761 95.5 136 93.2614 136 90.5H126ZM59 172C61.7614 172 64 169.761 64 167C64 164.239 61.7614 162 59 162V172ZM14.7025 164.973L17.0073 160.536L17.0073 160.536L14.7025 164.973ZM7.02656 157.298L2.58949 159.602H2.58949L7.02656 157.298ZM121.298 7.02656L118.993 11.4636V11.4636L121.298 7.02656ZM128.973 14.7025L124.536 17.0073L124.536 17.0073L128.973 14.7025ZM14.7025 7.02656L12.3976 2.58949V2.58949L14.7025 7.02656ZM7.02656 14.7025L2.58949 12.3976H2.58949L7.02656 14.7025ZM116.182 163.818L119.718 167.354L116.182 163.818ZM152.536 134.536C154.488 132.583 154.488 129.417 152.536 127.464C150.583 125.512 147.417 125.512 145.464 127.464L152.536 134.536ZM109.818 163.818L106.282 167.354H106.282L109.818 163.818ZM98.5355 145.464C96.5829 143.512 93.4171 143.512 91.4645 145.464C89.5118 147.417 89.5118 150.583 91.4645 152.536L98.5355 145.464ZM41 118H59V108H41V118ZM41 82H95V72H41V82ZM41 46H95V36H41V46ZM33.98 10H102.02V0H33.98V10ZM126 33.98V90.5H136V33.98H126ZM59 162H33.98V172H59V162ZM10 138.02V33.98H0V138.02H10ZM33.98 162C28.7707 162 25.1694 161.996 22.374 161.764C19.6384 161.537 18.1253 161.117 17.0073 160.536L12.3976 169.41C15.1809 170.856 18.1812 171.45 21.5463 171.73C24.8516 172.004 28.9385 172 33.98 172V162ZM0 138.02C0 143.061 -0.00401783 147.148 0.270473 150.454C0.549933 153.819 1.14369 156.819 2.58949 159.602L11.4636 154.993C10.8829 153.875 10.4633 152.362 10.2362 149.626C10.004 146.831 10 143.229 10 138.02H0ZM17.0073 160.536C14.633 159.303 12.697 157.367 11.4636 154.993L2.58949 159.602C4.77163 163.803 8.1968 167.228 12.3976 169.411L17.0073 160.536ZM102.02 10C107.229 10 110.831 10.004 113.626 10.2362C116.362 10.4633 117.875 10.8829 118.993 11.4636L123.602 2.58949C120.819 1.14369 117.819 0.549933 114.454 0.270473C111.148 -0.00401783 107.061 0 102.02 0V10ZM136 33.98C136 28.9385 136.004 24.8516 135.73 21.5463C135.45 18.1812 134.856 15.1809 133.411 12.3976L124.536 17.0073C125.117 18.1253 125.537 19.6384 125.764 22.374C125.996 25.1694 126 28.7707 126 33.98H136ZM118.993 11.4636C121.367 12.697 123.303 14.633 124.536 17.0073L133.411 12.3976C131.228 8.1968 127.803 4.77163 123.602 2.58949L118.993 11.4636ZM33.98 0C28.9385 0 24.8516 -0.00401783 21.5463 0.270473C18.1812 0.549933 15.1809 1.14369 12.3976 2.58949L17.0073 11.4636C18.1253 10.8829 19.6384 10.4633 22.374 10.2362C25.1694 10.004 28.7707 10 33.98 10V0ZM10 33.98C10 28.7707 10.004 25.1694 10.2362 22.374C10.4633 19.6384 10.8829 18.1253 11.4636 17.0073L2.58949 12.3976C1.14369 15.1809 0.549933 18.1812 0.270473 21.5464C-0.00401783 24.8517 0 28.9385 0 33.98H10ZM12.3976 2.58949C8.1968 4.77163 4.77163 8.1968 2.58949 12.3976L11.4636 17.0073C12.697 14.633 14.633 12.697 17.0073 11.4636L12.3976 2.58949ZM119.718 167.354L152.536 134.536L145.464 127.464L112.646 160.282L119.718 167.354ZM113.354 160.282L98.5355 145.464L91.4645 152.536L106.282 167.354L113.354 160.282ZM112.646 160.282C112.842 160.087 113.158 160.087 113.354 160.282L106.282 167.354C109.992 171.064 116.008 171.064 119.718 167.354L112.646 160.282Z" fill="url(#paint0_linear_627_387)"/>
<defs>
<linearGradient id="paint0_linear_627_387" x1="-62" y1="140" x2="166" y2="64" gradientUnits="userSpaceOnUse">
<stop stop-color="#B2F37F"/>
<stop offset="1" stop-color="#61CBED"/>
</linearGradient>
</defs>
</svg>
