<svg width="163" height="178" viewBox="0 0 163 178" fill="none" xmlns="http://www.w3.org/2000/svg">
<path d="M155.828 152.698L160.678 151.485L155.828 152.698ZM153.844 144.765L148.993 145.977L148.993 145.977L153.844 144.765ZM9.00166 144.765L4.15095 143.552H4.15095L9.00166 144.765ZM7.01833 152.698L11.869 153.911H11.869L7.01833 152.698ZM15.9078 133.52L13.9711 128.911H13.9711L15.9078 133.52ZM11.811 136.719L15.8133 139.716H15.8133L11.811 136.719ZM151.035 136.719L147.033 139.716L151.035 136.719ZM146.938 133.52L148.875 128.911V128.911L146.938 133.52ZM153.194 170.978L150.603 166.701L153.194 170.978ZM157.53 165.424L162.307 166.901V166.901L157.53 165.424ZM9.65193 170.978L12.2429 166.701H12.2429L9.65193 170.978ZM5.31616 165.424L10.0932 163.948H10.0932L5.31616 165.424ZM74.3271 7.37739L72.0911 2.90526V2.90526L74.3271 7.37739ZM16.2812 36.4004L18.5172 40.8725H18.5172L16.2812 36.4004ZM9.18539 57.6877L13.6575 55.4517L9.18539 57.6877ZM10.9099 61.1368L15.382 58.9007L15.382 58.9007L10.9099 61.1368ZM151.936 61.1368L147.464 58.9007V58.9007L151.936 61.1368ZM153.66 57.6877L149.188 55.4517V55.4517L153.66 57.6877ZM146.565 36.4004L148.801 31.9282L146.565 36.4004ZM88.5187 7.37739L90.7548 2.90526V2.90526L88.5187 7.37739ZM157.368 47.8558L162.368 47.8178L157.368 47.8558ZM155.43 42.0414L151.407 45.011V45.011L155.43 42.0414ZM7.41594 42.0414L3.39328 39.0719H3.39328L7.41594 42.0414ZM5.47783 47.8558L0.477973 47.8178L5.47783 47.8558ZM150.116 63.194L148.485 58.4673L148.485 58.4673L150.116 63.194ZM151.042 62.6215L154.541 66.1936L154.541 66.1936L151.042 62.6215ZM12.7301 63.194L14.3605 58.4673L14.3605 58.4673L12.7301 63.194ZM11.8038 62.6215L8.30516 66.1936L8.30518 66.1936L11.8038 62.6215ZM79.5943 5.17005L80.5163 10.0843L79.5943 5.17005ZM83.2515 5.17005L84.1735 0.255795H84.1735L83.2515 5.17005ZM26.8396 122.829C26.8396 125.591 29.0782 127.829 31.8396 127.829C34.601 127.829 36.8396 125.591 36.8396 122.829H26.8396ZM36.8396 63.3295C36.8396 60.5681 34.601 58.3295 31.8396 58.3295C29.0782 58.3295 26.8396 60.5681 26.8396 63.3295H36.8396ZM76.4229 122.829C76.4229 125.591 78.6615 127.829 81.4229 127.829C84.1844 127.829 86.4229 125.591 86.4229 122.829H76.4229ZM86.4229 73.2462C86.4229 70.4847 84.1844 68.2462 81.4229 68.2462C78.6615 68.2462 76.4229 70.4847 76.4229 73.2462H86.4229ZM126.006 122.829C126.006 125.591 128.245 127.829 131.006 127.829C133.768 127.829 136.006 125.591 136.006 122.829H126.006ZM136.006 73.2462C136.006 70.4847 133.768 68.2462 131.006 68.2462C128.245 68.2462 126.006 70.4847 126.006 73.2462H136.006ZM22.4113 177.413H140.435V167.413H22.4113V177.413ZM160.678 151.485L158.695 143.552L148.993 145.977L150.977 153.911L160.678 151.485ZM138.451 127.746H24.3946V137.746H138.451V127.746ZM4.15095 143.552L2.16761 151.485L11.869 153.911L13.8524 145.977L4.15095 143.552ZM24.3946 127.746C20.4294 127.746 16.9697 127.651 13.9711 128.911L17.8445 138.13C18.5311 137.842 19.5008 137.746 24.3946 137.746V127.746ZM13.8524 145.977C15.0393 141.23 15.367 140.312 15.8133 139.716L7.80869 133.722C5.85925 136.326 5.11265 139.705 4.15095 143.552L13.8524 145.977ZM13.9711 128.911C11.5257 129.938 9.39851 131.599 7.80869 133.722L15.8133 139.716C16.3374 139.016 17.0385 138.469 17.8445 138.13L13.9711 128.911ZM158.695 143.552C157.733 139.705 156.987 136.326 155.037 133.722L147.033 139.716C147.479 140.312 147.807 141.23 148.993 145.977L158.695 143.552ZM138.451 137.746C143.345 137.746 144.315 137.842 145.001 138.13L148.875 128.911C145.876 127.651 142.416 127.746 138.451 127.746V137.746ZM155.037 133.722C153.447 131.599 151.32 129.938 148.875 128.911L145.001 138.13C145.807 138.469 146.508 139.016 147.033 139.716L155.037 133.722ZM140.435 177.413C143.806 177.413 146.664 177.417 148.964 177.214C151.301 177.007 153.646 176.55 155.785 175.254L150.603 166.701C150.373 166.841 149.802 167.101 148.083 167.253C146.327 167.408 143.99 167.413 140.435 167.413V177.413ZM150.977 153.911C151.839 157.36 152.401 159.628 152.677 161.369C152.946 163.074 152.832 163.691 152.753 163.948L162.307 166.901C163.045 164.512 162.92 162.126 162.554 159.808C162.194 157.528 161.496 154.756 160.678 151.485L150.977 153.911ZM155.785 175.254C158.908 173.362 161.229 170.39 162.307 166.901L152.753 163.948C152.397 165.098 151.632 166.078 150.603 166.701L155.785 175.254ZM22.4113 167.413C18.856 167.413 16.5189 167.408 14.763 167.253C13.0443 167.101 12.473 166.841 12.2429 166.701L7.06098 175.254C9.19973 176.55 11.5446 177.007 13.8817 177.214C16.1815 177.417 19.0395 177.413 22.4113 177.413V167.413ZM2.16762 151.485C1.34985 154.756 0.652208 157.528 0.291819 159.808C-0.0744061 162.126 -0.199295 164.512 0.539118 166.901L10.0932 163.948C10.0137 163.691 9.89992 163.074 10.1692 161.369C10.4444 159.628 11.0068 157.36 11.869 153.911L2.16762 151.485ZM12.2429 166.701C11.2135 166.078 10.4486 165.098 10.0932 163.948L0.539118 166.901C1.61738 170.39 3.93791 173.362 7.06098 175.254L12.2429 166.701ZM14.4578 68.3295H148.388V58.3295H14.4578V68.3295ZM72.0911 2.90526L14.0451 31.9282L18.5172 40.8725L76.5632 11.8495L72.0911 2.90526ZM4.71326 59.9238L6.43778 63.3728L15.382 58.9007L13.6575 55.4517L4.71326 59.9238ZM156.408 63.3728L158.133 59.9238L149.188 55.4517L147.464 58.9007L156.408 63.3728ZM148.801 31.9282L90.7548 2.90526L86.2827 11.8495L144.329 40.8725L148.801 31.9282ZM158.133 59.9238C159.338 57.5138 160.379 55.4392 161.092 53.6662C161.826 51.8388 162.384 49.9311 162.368 47.8178L152.368 47.8937C152.37 48.1612 152.316 48.6856 151.813 49.9372C151.288 51.2432 150.467 52.8941 149.188 55.4517L158.133 59.9238ZM144.329 40.8725C146.886 42.1513 148.534 42.9794 149.737 43.7092C150.89 44.4087 151.248 44.7958 151.407 45.011L159.453 39.0719C158.197 37.3716 156.607 36.1801 154.923 35.1588C153.289 34.168 151.211 33.1332 148.801 31.9282L144.329 40.8725ZM162.368 47.8178C162.344 44.6678 161.323 41.6062 159.453 39.0719L151.407 45.011C152.024 45.8463 152.36 46.8554 152.368 47.8937L162.368 47.8178ZM14.0451 31.9282C11.6351 33.1332 9.55697 34.168 7.92316 35.1588C6.23927 36.1801 4.6484 37.3716 3.39328 39.0719L11.4386 45.011C11.5974 44.7958 11.9554 44.4087 13.1088 43.7092C14.3122 42.9794 15.9597 42.1513 18.5172 40.8725L14.0451 31.9282ZM13.6575 55.4517C12.3788 52.8941 11.5576 51.2432 11.0328 49.9372C10.5298 48.6856 10.4757 48.1612 10.4777 47.8937L0.477973 47.8178C0.461931 49.9311 1.01969 51.8388 1.75405 53.6662C2.46658 55.4391 3.50827 57.5138 4.71326 59.9238L13.6575 55.4517ZM3.39328 39.0719C1.52241 41.6062 0.501886 44.6678 0.477973 47.8178L10.4777 47.8937C10.4856 46.8554 10.8219 45.8463 11.4386 45.011L3.39328 39.0719ZM148.388 68.3295C148.915 68.3295 150.372 68.3947 151.746 67.9207L148.485 58.4673C148.575 58.4364 148.662 58.4108 148.744 58.3901C148.826 58.3694 148.899 58.3549 148.958 58.3446C149.074 58.3248 149.141 58.3214 149.127 58.3223C149.122 58.3226 149.103 58.3236 149.066 58.3248C149.03 58.3259 148.982 58.327 148.917 58.3278C148.852 58.3285 148.778 58.329 148.688 58.3293C148.598 58.3295 148.501 58.3295 148.388 58.3295V68.3295ZM147.464 58.9007C147.413 59.0016 147.37 59.0886 147.329 59.1691C147.289 59.2491 147.255 59.3156 147.226 59.3731C147.196 59.4305 147.174 59.4732 147.156 59.5054C147.139 59.5376 147.13 59.5538 147.127 59.5585C147.12 59.5703 147.153 59.5118 147.222 59.4175C147.258 59.3687 147.304 59.3106 147.359 59.2465C147.414 59.182 147.476 59.1157 147.544 59.0494L154.541 66.1936C155.579 65.1764 156.172 63.8446 156.408 63.3728L147.464 58.9007ZM151.746 67.9207C152.794 67.5592 153.749 66.9693 154.541 66.1936L147.544 59.0494C147.81 58.788 148.132 58.5891 148.485 58.4673L151.746 67.9207ZM14.4578 58.3295C14.345 58.3295 14.2478 58.3295 14.1577 58.3293C14.0681 58.329 13.9935 58.3285 13.9288 58.3278C13.8643 58.327 13.816 58.3259 13.7794 58.3248C13.7428 58.3236 13.7242 58.3226 13.7188 58.3223C13.7051 58.3214 13.7722 58.3248 13.8876 58.3446C13.9473 58.3549 14.0195 58.3694 14.1015 58.3901C14.184 58.4108 14.2708 58.4364 14.3605 58.4673L11.0997 67.9207C12.474 68.3947 13.9304 68.3295 14.4578 68.3295V58.3295ZM6.43777 63.3728C6.67366 63.8446 7.26662 65.1764 8.30516 66.1936L15.3024 59.0494C15.3701 59.1157 15.4318 59.182 15.4872 59.2465C15.5423 59.3106 15.5877 59.3687 15.6236 59.4175C15.6929 59.5118 15.7259 59.5703 15.719 59.5585C15.7163 59.5538 15.707 59.5376 15.6897 59.5054C15.6723 59.4732 15.6498 59.4305 15.6202 59.373C15.5906 59.3156 15.5568 59.2491 15.5165 59.1691C15.476 59.0886 15.4325 59.0016 15.382 58.9007L6.43777 63.3728ZM14.3605 58.4673C14.7137 58.5891 15.0354 58.788 15.3023 59.0494L8.30518 66.1936C9.09718 66.9693 10.0517 67.5592 11.0997 67.9207L14.3605 58.4673ZM76.5632 11.8495C79.4242 10.419 80.0015 10.1809 80.5163 10.0843L78.6723 0.255795C76.4582 0.671209 74.4336 1.73397 72.0911 2.90526L76.5632 11.8495ZM90.7548 2.90526C88.4122 1.73397 86.3877 0.671208 84.1735 0.255795L82.3296 10.0843C82.8444 10.1809 83.4217 10.419 86.2827 11.8495L90.7548 2.90526ZM80.5163 10.0843C81.1155 9.9719 81.7304 9.9719 82.3296 10.0843L84.1735 0.255795C82.3557 -0.0852647 80.4902 -0.0852652 78.6723 0.255795L80.5163 10.0843ZM36.8396 122.829V63.3295H26.8396V122.829H36.8396ZM86.4229 122.829V73.2462H76.4229V122.829H86.4229ZM136.006 122.829V73.2462H126.006V122.829H136.006Z" fill="url(#paint0_linear_624_2736)"/>
<defs>
<linearGradient id="paint0_linear_624_2736" x1="5" y1="156" x2="158" y2="29.5" gradientUnits="userSpaceOnUse">
<stop stop-color="#B2F37F"/>
<stop offset="1" stop-color="#61CBED"/>
</linearGradient>
</defs>
</svg>
