<svg width="172" height="179" viewBox="0 0 172 179" fill="none" xmlns="http://www.w3.org/2000/svg">
<path d="M112.75 68.1667L80.2359 100.681C78.4948 102.422 75.6719 102.422 73.9308 100.681L59.25 86M46.6181 5.75H125.382C128.255 5.75 130.583 8.07874 130.583 10.9514C130.583 25.3146 142.227 36.9583 156.59 36.9583H160.306C163.589 36.9583 166.25 39.6198 166.25 42.9028V50.5586C166.25 99.9505 139.472 145.46 96.2958 169.447L92.9233 171.32C88.6177 173.712 83.3823 173.712 79.0767 171.32L75.7042 169.447C32.5279 145.46 5.75 99.9505 5.75 50.5586V42.9028C5.75 39.6198 8.41142 36.9583 11.6944 36.9583H15.4097C29.773 36.9583 41.4167 25.3146 41.4167 10.9514C41.4167 8.07874 43.7454 5.75 46.6181 5.75Z" stroke="url(#paint0_linear_627_388)" stroke-width="10" stroke-linecap="round"/>
<defs>
<linearGradient id="paint0_linear_627_388" x1="132" y1="39" x2="-18" y2="161" gradientUnits="userSpaceOnUse">
<stop stop-color="#61CBED"/>
<stop offset="1" stop-color="#B2F37F"/>
</linearGradient>
</defs>
</svg>
